<?xml version="1.0" encoding="UTF-8" standalone="no"?>
<!-- Created with Inkscape (http://www.inkscape.org/) -->

<svg
   width="62.999889mm"
   height="23.280437mm"
   viewBox="0 0 62.999889 23.280437"
   version="1.1"
   id="svg1"
   xmlns="http://www.w3.org/2000/svg"
   xmlns:svg="http://www.w3.org/2000/svg">
  <defs
     id="defs1">
    <clipPath
       clipPathUnits="userSpaceOnUse"
       id="clipPath1490">
      <path
         d="M 0,739.323 H 1504.68 V 0 H 0 Z"
         transform="translate(-147.7959,-92.424805)"
         id="path1490" />
    </clipPath>
    <clipPath
       clipPathUnits="userSpaceOnUse"
       id="clipPath1492">
      <path
         d="M 0,739.323 H 1504.68 V 0 H 0 Z"
         transform="translate(-108.2173,-66.929702)"
         id="path1492" />
    </clipPath>
    <clipPath
       clipPathUnits="userSpaceOnUse"
       id="clipPath1494">
      <path
         d="M 0,739.323 H 1504.68 V 0 H 0 Z"
         transform="translate(-80.6035,-59.995104)"
         id="path1494" />
    </clipPath>
    <clipPath
       clipPathUnits="userSpaceOnUse"
       id="clipPath1496">
      <path
         d="M 0,739.323 H 1504.68 V 0 H 0 Z"
         transform="translate(-92.960005,-53.136699)"
         id="path1496" />
    </clipPath>
    <clipPath
       clipPathUnits="userSpaceOnUse"
       id="clipPath1498">
      <path
         d="M 0,739.323 H 1504.68 V 0 H 0 Z"
         transform="translate(-114.4365,-66.929702)"
         id="path1498" />
    </clipPath>
    <clipPath
       clipPathUnits="userSpaceOnUse"
       id="clipPath1500">
      <path
         d="M 0,739.323 H 1504.68 V 0 H 0 Z"
         transform="translate(-120.9043,-65.522499)"
         id="path1500" />
    </clipPath>
    <clipPath
       clipPathUnits="userSpaceOnUse"
       id="clipPath1502">
      <path
         d="M 0,739.323 H 1504.68 V 0 H 0 Z"
         transform="translate(-169.64601,-54.485401)"
         id="path1502" />
    </clipPath>
    <clipPath
       clipPathUnits="userSpaceOnUse"
       id="clipPath1504">
      <path
         d="M 0,739.323 H 1504.68 V 0 H 0 Z"
         transform="translate(-174.92331,-65.625002)"
         id="path1504" />
    </clipPath>
    <clipPath
       clipPathUnits="userSpaceOnUse"
       id="clipPath1506">
      <path
         d="M 0,739.323 H 1504.68 V 0 H 0 Z"
         transform="translate(-187.91991,-59.995104)"
         id="path1506" />
    </clipPath>
    <clipPath
       clipPathUnits="userSpaceOnUse"
       id="clipPath1508">
      <path
         d="M 0,739.323 H 1504.68 V 0 H 0 Z"
         transform="translate(-208.66261,-60.042002)"
         id="path1508" />
    </clipPath>
    <clipPath
       clipPathUnits="userSpaceOnUse"
       id="clipPath1510">
      <path
         d="M 0,739.323 H 1504.68 V 0 H 0 Z"
         transform="translate(-224.58841,-61.551804)"
         id="path1510" />
    </clipPath>
    <clipPath
       clipPathUnits="userSpaceOnUse"
       id="clipPath1512">
      <path
         d="M 0,739.323 H 1504.68 V 0 H 0 Z"
         transform="translate(-75.803702,-71.641599)"
         id="path1512" />
    </clipPath>
    <clipPath
       clipPathUnits="userSpaceOnUse"
       id="clipPath1514">
      <path
         d="M 0,739.323 H 1504.68 V 0 H 0 Z"
         transform="translate(-151.8892,-68.463902)"
         id="path1514" />
    </clipPath>
  </defs>
  <g
     id="layer1"
     transform="translate(-225.16041,-119.32708)">
    <path
       id="path1489"
       d="M 0,0 C 3.627,2.287 7.33,4.361 11.083,6.212 9.5,15.557 1.361,22.673 -8.436,22.673 -8.835,22.673 -9.228,22.659 -9.62,22.636 -6.364,14.905 -3.45,7.516 -0.791,0.268 -0.517,0.257 -0.239,0.167 0,0 m -1.909,-2.261 c -0.012,0.013 -0.028,0.029 -0.038,0.04 -6.266,-2.391 -12.619,-6.001 -18.606,-10.562 0.551,-0.422 1.119,-0.816 1.702,-1.18 5.885,0.117 11.86,-0.405 17.789,-1.543 2.908,1.167 5.477,3.007 7.513,5.327 -2.19,2.664 -4.44,5.2 -6.744,7.586 -0.54,-0.219 -1.18,-0.107 -1.616,0.332 m -6.527,-14.663 c 1.774,0 3.499,0.236 5.14,0.674 -4.5,0.754 -9.022,1.148 -13.495,1.174 2.541,-1.184 5.369,-1.848 8.355,-1.848 m -8.387,31.344 c -0.015,0.025 -0.039,0.051 -0.058,0.078 -0.002,0.006 -0.006,0.017 -0.015,0.024 -0.02,0.033 -0.042,0.068 -0.062,0.104 v 0.005 c -0.004,0.007 -0.006,0.014 -0.008,0.021 -0.026,0.036 -0.036,0.074 -0.052,0.109 -0.004,0.013 -0.012,0.027 -0.014,0.042 -0.009,0.032 -0.026,0.062 -0.033,0.095 -0.006,0.021 -0.01,0.042 -0.014,0.064 -0.009,0.024 -0.013,0.05 -0.023,0.075 -0.003,0.028 -0.007,0.057 -0.007,0.085 -0.01,0.021 -0.01,0.04 -0.012,0.059 -0.005,0.036 -0.005,0.072 -0.005,0.106 v 0.034 0.008 c 0,0.032 0,0.07 0.005,0.106 0,0.015 0,0.029 0.002,0.045 0,0.021 0.01,0.043 0.012,0.067 0.025,0.167 0.077,0.325 0.151,0.468 0.002,0.004 0.006,0.007 0.006,0.011 0.014,0.022 0.026,0.043 0.042,0.066 0.012,0.019 0.025,0.041 0.034,0.059 0.006,0.008 0.008,0.015 0.014,0.022 0.087,0.122 0.197,0.236 0.324,0.33 0.025,0.017 0.048,0.037 0.072,0.054 0.005,0.005 0.02,0.009 0.027,0.015 0.035,0.022 0.069,0.043 0.104,0.062 v 0.001 c 0.006,0.005 0.018,0.008 0.023,0.011 0.039,0.018 0.075,0.035 0.115,0.049 0.012,0.006 0.024,0.011 0.038,0.016 0.028,0.01 0.056,0.022 0.085,0.03 0.148,1.539 0.304,3.07 0.453,4.589 -7.38,-2.876 -12.613,-10.055 -12.613,-18.454 0,-4.985 1.841,-9.539 4.881,-13.021 2.39,9.066 4.81,17.525 6.781,24.302 -0.093,0.074 -0.182,0.162 -0.253,0.263 m 6.362,-13.558 c -0.002,0.005 -0.002,0.01 -0.006,0.015 -0.006,0.016 -0.009,0.031 -0.011,0.043 -0.003,0.022 -0.011,0.042 -0.019,0.062 -0.004,0.011 -0.004,0.025 -0.006,0.035 -0.004,0.017 -0.004,0.033 -0.007,0.049 -0.003,0.012 -0.011,0.028 -0.013,0.044 v 0.019 c 0,0.009 -0.006,0.021 -0.008,0.031 0,0.017 0,0.034 -0.002,0.049 -0.004,0.026 -0.004,0.05 -0.004,0.074 0,0.009 -0.002,0.016 -0.002,0.024 0,0.013 0.002,0.025 0.002,0.036 V 1.44 1.45 1.453 c 0.004,0.009 0.004,0.018 0.004,0.026 0.004,0.039 0.01,0.071 0.016,0.106 0,0.004 0,0.008 0.004,0.012 0,0.01 0.003,0.022 0.006,0.032 0.004,0.032 0.01,0.065 0.024,0.095 0,0.005 0,0.008 0.002,0.013 0.003,0.017 0.003,0.027 0.008,0.044 0.01,0.026 0.016,0.052 0.03,0.078 0,0.005 0.005,0.012 0.005,0.017 0.002,0.017 0.013,0.031 0.019,0.047 0.012,0.021 0.019,0.043 0.028,0.064 0.004,0.007 0.006,0.018 0.01,0.022 0.007,0.014 0.017,0.031 0.03,0.046 0.004,0.018 0.016,0.038 0.033,0.056 0,0.009 0.005,0.017 0.011,0.024 0.008,0.014 0.019,0.029 0.029,0.044 0.012,0.016 0.024,0.037 0.04,0.053 0.004,0.007 0.01,0.014 0.012,0.023 0.016,0.012 0.028,0.021 0.035,0.034 0.011,0.02 0.027,0.04 0.047,0.057 0.006,0.008 0.008,0.012 0.014,0.018 0.002,0.008 0.015,0.014 0.022,0.02 -1.62,3.785 -3.392,7.545 -5.385,11.425 -2.023,-6.94 -4.507,-15.633 -6.948,-24.931 0.116,-0.109 0.226,-0.217 0.345,-0.328 3.679,4.596 7.577,8.724 11.635,12.312 m 21.71,4.17 C 7.647,3.241 4.091,1.247 0.608,-0.953 0.659,-1.236 0.627,-1.536 0.51,-1.805 c 2.282,-2.358 4.511,-4.86 6.674,-7.491 2.615,3.358 4.181,7.583 4.181,12.172 0,0.728 -0.042,1.447 -0.116,2.156 M -2.333,-1.09 C -4.104,-0.245 -5.943,0.334 -7.752,0.619 -7.754,0.615 -7.76,0.613 -7.76,0.613 -7.763,0.599 -7.773,0.586 -7.779,0.571 -7.79,0.562 -7.796,0.549 -7.798,0.536 -7.805,0.527 -7.818,0.518 -7.824,0.508 -7.826,0.504 -7.826,0.496 -7.84,0.489 -7.842,0.479 -7.849,0.466 -7.862,0.453 -7.87,0.44 -7.878,0.431 -7.891,0.418 -7.895,0.412 -7.896,0.407 -7.902,0.402 -7.906,0.396 -7.912,0.387 -7.912,0.383 -7.926,0.366 -7.944,0.352 -7.958,0.338 -7.97,0.318 -7.994,0.3 -8.01,0.283 -8.03,0.264 -8.044,0.247 -8.063,0.231 -8.073,0.224 -8.079,0.218 -8.085,0.211 -8.092,0.2 -8.109,0.193 -8.117,0.188 -8.139,0.17 -8.159,0.152 -8.179,0.138 -8.189,0.133 -8.189,0.126 -8.197,0.123 -8.213,0.112 -8.225,0.105 -8.241,0.097 -8.257,0.083 -8.278,0.071 -8.299,0.06 -8.309,0.055 -8.316,0.05 -8.32,0.045 -8.339,0.037 -8.353,0.029 -8.364,0.022 -8.385,0.012 -8.408,0.002 -8.428,-0.008 -8.436,-0.012 -8.444,-0.016 -8.45,-0.021 -8.466,-0.027 -8.486,-0.034 -8.498,-0.04 -8.518,-0.047 -8.538,-0.056 -8.56,-0.061 -8.569,-0.064 -8.578,-0.068 -8.586,-0.072 -8.604,-0.079 -8.624,-0.083 -8.641,-0.088 -8.658,-0.094 -8.679,-0.099 -8.694,-0.102 -8.708,-0.105 -8.719,-0.109 -8.729,-0.112 -8.749,-0.116 -8.765,-0.119 -8.785,-0.123 -8.801,-0.126 -8.814,-0.127 -8.823,-0.13 -8.831,-0.131 -8.839,-0.131 -8.845,-0.132 -8.853,-0.134 -8.863,-0.135 -8.873,-0.138 -8.894,-0.139 -8.911,-0.139 -8.926,-0.141 -8.953,-0.143 -8.97,-0.145 -8.998,-0.146 H -9.017 -9.07 c -0.025,0 -0.052,0.001 -0.082,0.001 -0.002,0.002 -0.006,0 -0.01,0.002 h -0.002 c -0.018,0 -0.032,0.002 -0.044,0.004 -0.031,0.004 -0.056,0.007 -0.089,0.012 -0.002,0 -0.007,0.001 -0.02,0.001 -0.012,0.003 -0.021,0.007 -0.04,0.011 -0.024,0.006 -0.052,0.011 -0.072,0.017 -0.01,0.002 -0.017,0.004 -0.024,0.005 -0.018,0.005 -0.037,0.011 -0.054,0.019 -0.021,0.006 -0.042,0.012 -0.063,0.018 -0.002,0.004 -0.014,0.006 -0.018,0.011 -0.022,0.005 -0.04,0.016 -0.06,0.024 -0.019,0.006 -0.034,0.013 -0.049,0.021 -0.009,0.005 -0.013,0.008 -0.023,0.011 -3.782,-3.353 -7.439,-7.183 -10.905,-11.433 5.897,4.412 12.134,7.914 18.291,10.262 10e-4,0.023 10e-4,0.046 10e-4,0.07 m -12.478,17.641 c 0.018,-0.01 0.029,-0.022 0.047,-0.033 0.088,-0.068 0.172,-0.14 0.243,-0.224 0.004,-0.013 0.02,-0.023 0.03,-0.033 0.009,-0.011 0.018,-0.024 0.022,-0.034 0.025,-0.029 0.044,-0.055 0.064,-0.086 0.008,-0.007 0.01,-0.013 0.014,-0.02 0.021,-0.036 0.048,-0.073 0.068,-0.11 0,-0.002 0,-0.003 0.002,-0.004 0.002,-0.007 0.002,-0.013 0.004,-0.021 0.019,-0.036 0.04,-0.07 0.049,-0.108 0.008,-0.018 0.02,-0.033 0.022,-0.05 0.007,-0.029 0.02,-0.057 0.028,-0.087 0.01,-0.024 0.017,-0.049 0.021,-0.076 0.007,-0.021 0.011,-0.041 0.013,-0.061 0.006,-0.036 0.016,-0.072 0.017,-0.107 0,-0.012 0.002,-0.024 0.003,-0.036 0.006,-0.046 0.008,-0.091 0.008,-0.137 v -0.01 -10e-4 c 0,-0.046 -0.002,-0.094 -0.008,-0.141 0,-0.004 0,-0.007 -10e-4,-0.01 -0.002,-0.042 -0.013,-0.084 -0.019,-0.128 0,-0.006 0,-0.013 -0.002,-0.019 -0.004,-0.032 -0.015,-0.062 -0.024,-0.092 -0.014,-0.052 -0.031,-0.102 -0.052,-0.149 -0.006,-0.009 -0.008,-0.023 -0.013,-0.034 -0.002,-0.019 -0.015,-0.041 -0.027,-0.061 -0.013,-0.023 -0.019,-0.046 -0.033,-0.071 0,-0.006 -0.008,-0.016 -0.016,-0.023 -0.044,-0.079 -0.093,-0.155 -0.16,-0.226 1.518,-2.95 2.912,-5.833 4.204,-8.709 -0.898,5.613 -1.81,11.104 -2.718,16.487 -0.477,-0.114 -0.952,-0.243 -1.415,-0.393 -0.169,-1.691 -0.342,-3.397 -0.511,-5.113 0.037,-0.016 0.072,-0.037 0.102,-0.057 0.012,-0.008 0.029,-0.014 0.038,-0.023 m 6.14,-13.777 c 0.002,-0.002 0.013,-0.002 0.017,-0.004 0.017,-0.004 0.036,-0.013 0.056,-0.018 0.02,-0.006 0.038,-0.012 0.06,-0.021 0.004,0 0.013,-0.004 0.022,-0.007 0.025,-0.008 0.038,-0.018 0.061,-0.028 0.013,-0.006 0.029,-0.011 0.047,-0.018 0.008,-0.005 0.016,-0.01 0.023,-0.013 0.021,-0.01 0.04,-0.022 0.061,-0.033 0.011,-0.007 0.029,-0.015 0.04,-0.023 0.013,-0.005 0.017,-0.008 0.034,-0.015 0.009,-0.013 0.027,-0.025 0.045,-0.038 0.016,-0.009 0.032,-0.019 0.046,-0.03 0.002,-0.005 0.012,-0.01 0.02,-0.018 0.016,-0.01 0.03,-0.024 0.047,-0.035 0.013,-0.014 0.029,-0.028 0.046,-0.041 0.003,-0.004 0.006,-0.009 0.011,-0.012 0,-0.003 0,-0.004 0.002,-0.004 0.013,-0.013 0.03,-0.025 0.039,-0.038 0.018,-0.016 0.031,-0.032 0.048,-0.049 0.02,-0.018 0.034,-0.038 0.044,-0.055 0.019,-0.019 0.032,-0.041 0.046,-0.057 0.011,-0.012 0.016,-0.02 0.024,-0.03 0.006,-0.005 0.006,-0.012 0.01,-0.019 0,-0.001 0.004,-0.007 0.004,-0.008 0.017,-0.022 0.024,-0.042 0.039,-0.064 0.012,-0.01 0.018,-0.023 0.025,-0.033 C -7.749,2.054 -7.747,2.04 -7.741,2.03 -7.729,2.011 -7.72,1.99 -7.71,1.971 -7.707,1.959 -7.697,1.945 -7.693,1.934 -7.685,1.92 -7.683,1.907 -7.676,1.895 -7.671,1.876 -7.661,1.859 -7.661,1.842 -7.651,1.824 -7.644,1.811 -7.64,1.795 -7.637,1.781 -7.635,1.768 -7.623,1.754 V 1.752 c 0,-0.005 0.002,-0.009 0.002,-0.013 1.923,-0.297 3.866,-0.904 5.744,-1.795 -2.683,7.317 -5.632,14.777 -8.92,22.588 -0.382,-0.045 -0.752,-0.099 -1.121,-0.164 1.072,-6.37 2.154,-12.89 3.21,-19.584 0.014,-0.004 0.019,-0.006 0.037,-0.01"
       style="fill:#ffffff;fill-opacity:1;fill-rule:nonzero;stroke:none"
       transform="matrix(0.35277776,0,0,-0.35277776,259.6364,127.32561)"
       clip-path="url(#clipPath1490)" />
    <path
       id="path1491"
       d="m 0,0 1.122,4.097 c 0.031,0.17 0.122,0.308 0.263,0.417 0.142,0.108 0.293,0.163 0.44,0.163 H 4.689 C 4.84,4.677 4.956,4.622 5.03,4.514 5.11,4.405 5.124,4.267 5.096,4.097 L 4.139,0.529 C 3.904,-0.311 3.588,-1.021 3.195,-1.607 2.804,-2.194 2.361,-2.685 1.873,-3.079 1.387,-3.474 0.883,-3.774 0.355,-3.983 -0.169,-4.194 -0.682,-4.325 -1.166,-4.374 l 0.552,2.01 c 0.718,0.183 1.275,0.493 1.664,0.919 0.379,0.427 0.642,0.912 0.775,1.445 z"
       style="fill:#ffffff;fill-opacity:1;fill-rule:nonzero;stroke:none"
       transform="matrix(0.35277776,0,0,-0.35277776,245.67395,136.31971)"
       clip-path="url(#clipPath1492)" />
    <path
       id="path1493"
       d="m 0,0 c -0.153,-0.538 -0.259,-1.054 -0.307,-1.549 -0.048,-0.494 -0.029,-0.935 0.062,-1.319 0.094,-0.385 0.281,-0.691 0.555,-0.919 0.273,-0.226 0.68,-0.337 1.219,-0.337 0.518,0 0.986,0.111 1.397,0.337 0.41,0.228 0.767,0.534 1.066,0.919 0.303,0.384 0.558,0.825 0.769,1.319 C 4.969,-1.054 5.15,-0.538 5.308,0 5.453,0.55 5.558,1.077 5.615,1.582 5.672,2.085 5.652,2.529 5.555,2.915 5.453,3.3 5.26,3.604 4.975,3.831 4.688,4.058 4.283,4.171 3.769,4.171 3.245,4.171 2.787,4.058 2.382,3.831 1.983,3.604 1.63,3.3 1.33,2.915 1.026,2.529 0.768,2.085 0.551,1.582 0.333,1.077 0.148,0.55 0,0 m -4.201,0.021 c 0.252,0.973 0.643,1.883 1.18,2.728 0.538,0.848 1.182,1.575 1.942,2.188 0.754,0.612 1.609,1.097 2.554,1.459 0.951,0.36 1.961,0.541 3.039,0.541 1.07,0 1.989,-0.177 2.758,-0.528 C 8.034,6.056 8.628,5.569 9.059,4.949 9.49,4.328 9.743,3.597 9.825,2.749 9.912,1.904 9.825,0.994 9.576,0.021 9.308,-0.966 8.899,-1.88 8.368,-2.718 7.828,-3.557 7.185,-4.284 6.428,-4.904 5.668,-5.524 4.815,-6.011 3.856,-6.363 2.9,-6.714 1.885,-6.892 0.811,-6.892 c -1.075,0 -1.993,0.179 -2.746,0.539 -0.76,0.362 -1.343,0.85 -1.764,1.459 -0.423,0.614 -0.67,1.337 -0.753,2.176 -0.082,0.838 0,1.752 0.251,2.739"
       style="fill:#ffffff;fill-opacity:1;fill-rule:nonzero;stroke:none"
       transform="matrix(0.35277776,0,0,-0.35277776,235.93241,138.76608)"
       clip-path="url(#clipPath1494)" />
    <path
       id="path1495"
       d="M 0,0 -0.854,13.794 H 3.59 c 0,-1.609 0.04,-3.451 0.054,-4.725 V 7.484 6.103 4.768 h 0.155 c -0.019,0 4.801,9.026 4.801,9.026 h 4.44 C 13.04,13.794 5.423,0.736 4.951,0 Z"
       style="fill:#ffffff;fill-opacity:1;fill-rule:nonzero;stroke:none"
       transform="matrix(0.35277776,0,0,-0.35277776,240.29151,141.18558)"
       clip-path="url(#clipPath1496)" />
    <path
       id="path1497"
       d="M 0,0 H 4.275 L 0.566,-13.794 h -4.248 z"
       style="fill:#ffffff;fill-opacity:1;fill-rule:nonzero;stroke:none"
       transform="matrix(0.35277776,0,0,-0.35277776,247.86794,136.31971)"
       clip-path="url(#clipPath1498)" />
    <path
       id="path1499"
       d="m 0,0 c 0.915,0.283 1.757,0.516 2.509,0.692 0.754,0.177 1.615,0.336 2.567,0.477 0.959,0.143 1.939,0.214 2.94,0.214 0.893,0 1.614,-0.077 2.173,-0.238 0.564,-0.159 1.009,-0.377 1.333,-0.655 0.33,-0.275 0.555,-0.587 0.685,-0.929 0.123,-0.345 0.187,-0.707 0.187,-1.081 0,-0.377 -0.041,-0.751 -0.116,-1.12 -0.071,-0.37 -0.153,-0.711 -0.235,-1.029 L 9.688,-12.386 H 5.415 l 2.001,7.383 c 0.115,0.452 0.225,0.896 0.336,1.321 0.11,0.427 0.154,0.807 0.127,1.143 -0.021,0.337 -0.158,0.609 -0.402,0.817 -0.243,0.209 -0.66,0.316 -1.243,0.316 -0.319,0 -0.628,-0.032 -0.919,-0.089 C 5.022,-1.553 4.761,-1.625 4.521,-1.708 4.253,-1.795 4.004,-1.894 3.769,-2.011 L 0.963,-12.386 h -4.25 z"
       style="fill:#ffffff;fill-opacity:1;fill-rule:nonzero;stroke:none"
       transform="matrix(0.35277776,0,0,-0.35277776,250.14964,136.81614)"
       clip-path="url(#clipPath1500)" />
    <path
       id="path1501"
       d="m 0,0 c -0.919,-0.285 -1.759,-0.515 -2.509,-0.689 -0.754,-0.175 -1.613,-0.337 -2.571,-0.478 -0.953,-0.144 -1.931,-0.215 -2.941,-0.215 -1.319,0 -2.297,0.178 -2.926,0.528 -0.63,0.353 -1.039,0.784 -1.246,1.294 -0.197,0.512 -0.259,1.061 -0.175,1.646 0.086,0.589 0.194,1.115 0.329,1.585 l 2.334,8.773 h 4.272 L -7.416,5.005 C -7.531,4.552 -7.643,4.11 -7.748,3.681 -7.864,3.257 -7.91,2.877 -7.879,2.541 -7.854,2.205 -7.72,1.933 -7.478,1.723 c 0.241,-0.211 0.657,-0.314 1.25,-0.314 0.313,0 0.62,0.029 0.911,0.087 0.293,0.061 0.562,0.131 0.793,0.214 0.269,0.086 0.52,0.186 0.753,0.304 l 2.791,10.43 h 4.271 z"
       style="fill:#ffffff;fill-opacity:1;fill-rule:nonzero;stroke:none"
       transform="matrix(0.35277776,0,0,-0.35277776,267.34463,140.70978)"
       clip-path="url(#clipPath1502)" />
    <path
       id="path1503"
       d="M 0,0 C 0.552,0.25 1.2,0.467 1.939,0.654 2.577,0.818 3.337,0.971 4.227,1.104 5.113,1.24 6.128,1.309 7.266,1.309 7.518,1.309 7.792,1.293 8.084,1.271 8.375,1.24 8.641,1.218 8.875,1.192 9.11,1.169 9.303,1.139 9.458,1.104 9.604,1.071 9.672,1.056 9.651,1.056 c 0,0 -1.026,-2.877 -1.231,-2.816 -2.286,0.674 -4.418,-0.266 -4.549,-0.342 -0.131,-0.074 -0.2,-0.12 -0.2,-0.135 l -2.193,-8.964 h -4.252 z"
       style="fill:#ffffff;fill-opacity:1;fill-rule:nonzero;stroke:none"
       transform="matrix(0.35277776,0,0,-0.35277776,269.20634,136.77998)"
       clip-path="url(#clipPath1504)" />
    <path
       id="path1505"
       d="m 0,0 c -0.148,-0.538 -0.25,-1.054 -0.299,-1.549 -0.054,-0.494 -0.034,-0.935 0.065,-1.319 0.086,-0.385 0.27,-0.691 0.549,-0.919 0.281,-0.226 0.682,-0.337 1.219,-0.337 0.519,0 0.981,0.111 1.397,0.337 0.408,0.228 0.761,0.534 1.071,0.919 0.3,0.384 0.549,0.825 0.759,1.319 C 4.977,-1.054 5.151,-0.538 5.305,0 5.457,0.55 5.556,1.077 5.622,1.582 5.68,2.085 5.653,2.529 5.556,2.915 5.457,3.3 5.263,3.604 4.98,3.831 4.691,4.058 4.294,4.171 3.771,4.171 3.252,4.171 2.792,4.058 2.389,3.831 1.987,3.604 1.638,3.3 1.335,2.915 1.032,2.529 0.771,2.085 0.556,1.582 0.336,1.077 0.153,0.55 0,0 m -4.195,0.021 c 0.251,0.973 0.645,1.883 1.182,2.728 0.537,0.848 1.183,1.575 1.936,2.188 0.762,0.612 1.613,1.097 2.56,1.459 C 2.431,6.756 3.44,6.937 4.519,6.937 5.59,6.937 6.513,6.76 7.273,6.409 8.037,6.056 8.635,5.569 9.064,4.949 9.49,4.328 9.75,3.597 9.828,2.749 9.915,1.904 9.828,0.994 9.58,0.021 9.311,-0.966 8.908,-1.88 8.368,-2.718 7.833,-3.557 7.184,-4.284 6.431,-4.904 5.674,-5.524 4.821,-6.011 3.862,-6.363 2.904,-6.714 1.892,-6.892 0.815,-6.892 c -1.076,0 -1.989,0.179 -2.747,0.539 -0.755,0.362 -1.343,0.85 -1.761,1.459 -0.42,0.614 -0.676,1.337 -0.756,2.176 -0.085,0.838 0,1.752 0.254,2.739"
       style="fill:#ffffff;fill-opacity:1;fill-rule:nonzero;stroke:none"
       transform="matrix(0.35277776,0,0,-0.35277776,273.79125,138.76608)"
       clip-path="url(#clipPath1506)" />
    <path
       id="path1507"
       d="M 0,0 C 0.108,0.469 0.199,0.947 0.259,1.435 0.321,1.918 0.289,2.363 0.177,2.769 0.055,3.17 -0.177,3.501 -0.521,3.759 -0.863,4.019 -1.36,4.151 -2.013,4.151 -2.286,4.151 -2.543,4.116 -2.796,4.046 -3.045,3.981 -3.263,3.907 -3.45,3.823 -3.667,3.724 -3.876,3.612 -4.082,3.497 l -1.885,-7.066 c 0.238,-0.152 0.479,-0.27 0.738,-0.352 0.214,-0.083 0.456,-0.152 0.723,-0.202 0.269,-0.048 0.548,-0.039 0.831,0.024 0.618,0.12 1.141,0.325 1.557,0.62 0.42,0.294 0.767,0.625 1.046,1.002 0.277,0.378 0.492,0.781 0.65,1.209 C -0.261,-0.84 -0.12,-0.418 0,0 m -7.826,5.505 c 0.589,0.269 1.273,0.504 2.038,0.706 0.652,0.184 1.438,0.343 2.352,0.476 0.915,0.137 1.922,0.204 3.031,0.204 1.19,0 2.145,-0.189 2.864,-0.568 C 3.174,5.946 3.715,5.443 4.067,4.815 4.422,4.188 4.595,3.459 4.61,2.628 4.616,1.8 4.496,0.923 4.243,0 4.012,-0.853 3.683,-1.696 3.262,-2.527 2.842,-3.354 2.294,-4.099 1.616,-4.751 0.937,-5.403 0.122,-5.93 -0.833,-6.333 -1.792,-6.737 -2.91,-6.938 -4.204,-6.938 c -0.398,0 -0.765,0.025 -1.081,0.076 -0.317,0.05 -0.589,0.116 -0.801,0.2 -0.255,0.086 -0.467,0.182 -0.66,0.302 l -1.228,-4.576 h -4.244 z"
       style="fill:#ffffff;fill-opacity:1;fill-rule:nonzero;stroke:none"
       transform="matrix(0.35277776,0,0,-0.35277776,281.10882,138.74954)"
       clip-path="url(#clipPath1508)" />
    <path
       id="path1509"
       d="M 0,0 C 0.062,0.367 0.095,0.712 0.076,1.031 0.059,1.349 -0.021,1.623 -0.15,1.86 -0.285,2.095 -0.494,2.281 -0.768,2.411 -1.042,2.548 -1.4,2.614 -1.839,2.614 -2.726,2.614 -3.44,2.379 -3.988,1.91 -4.528,1.44 -4.969,0.804 -5.303,0 Z m -6.009,-2.615 c -0.089,-0.352 -0.108,-0.708 -0.072,-1.069 0.027,-0.36 0.146,-0.687 0.348,-0.982 0.203,-0.292 0.494,-0.534 0.878,-0.727 0.387,-0.193 0.898,-0.288 1.537,-0.288 0.422,0 0.877,0.046 1.395,0.138 0.514,0.093 1.022,0.204 1.532,0.338 0.515,0.134 1.012,0.28 1.496,0.439 0.489,0.161 0.926,0.314 1.306,0.465 L 0.904,-7.669 C 0.889,-7.701 0.707,-7.76 0.375,-7.842 0.04,-7.93 -0.385,-8.018 -0.906,-8.107 -1.425,-8.2 -2,-8.28 -2.643,-8.348 -3.277,-8.415 -3.898,-8.449 -4.5,-8.449 c -1.144,0 -2.117,0.161 -2.932,0.479 -0.816,0.318 -1.46,0.777 -1.933,1.367 -0.48,0.6 -0.771,1.329 -0.879,2.19 -0.11,0.862 -0.024,1.838 0.265,2.932 0.301,1.119 0.753,2.108 1.357,2.963 0.604,0.855 1.295,1.573 2.083,2.15 0.791,0.578 1.656,1.014 2.591,1.307 0.935,0.294 1.887,0.443 2.84,0.443 0.922,0 1.729,-0.145 2.417,-0.43 C 1.993,4.667 2.549,4.272 2.98,3.771 3.41,3.266 3.706,2.684 3.88,2.021 4.061,1.361 4.105,0.654 4.023,-0.102 3.972,-0.504 3.902,-0.914 3.809,-1.334 3.713,-1.752 3.579,-2.182 3.39,-2.615 Z"
       style="fill:#ffffff;fill-opacity:1;fill-rule:nonzero;stroke:none"
       transform="matrix(0.35277776,0,0,-0.35277776,286.72709,138.21691)"
       clip-path="url(#clipPath1510)" />
    <path
       id="path1511"
       d="M 0,0 C 1.191,0 1.702,-0.729 1.363,-1.886 L -3.249,-18.599 H -7.887 L -3.75,-3.856 H -4.154 L -9.72,-14.34 c -0.512,-1.054 -1.237,-1.484 -2.34,-1.484 h -2.831 c -1.103,0 -1.669,0.622 -1.535,1.675 l 0.925,10.293 h -0.435 l -5.16,-14.743 h -4.639 l 6.031,16.901 C -19.286,-0.54 -18.674,0 -17.52,0 h 4.474 c 1.054,0 1.612,-0.618 1.459,-1.671 l -0.783,-8.25 c -0.078,-0.914 -0.258,-1.775 -0.452,-2.722 h 0.324 c 0.422,1.025 0.803,1.808 1.228,2.67 l 4.321,8.462 C -6.463,-0.431 -5.74,0 -4.633,0 Z"
       style="fill:#ffffff;fill-opacity:1;fill-rule:nonzero;stroke:none"
       transform="matrix(0.35277776,0,0,-0.35277776,234.23915,134.65746)"
       clip-path="url(#clipPath1512)" />
    <path
       id="path1513"
       d="m 0,0 c -1.02,0 -1.485,-0.35 -1.817,-1.453 l -0.895,-2.799 h 7.32 L 3.719,-7.158 h -7.346 l -1.114,-3.579 c -0.317,-0.995 -0.061,-1.371 0.963,-1.371 H 3.087 L 2.443,-15.15 c -2.413,-0.27 -5.484,-0.27 -8.094,-0.27 -3.096,0 -4.126,1.774 -3.303,4.467 l 3.349,10.603 c 0.725,2.262 2.503,3.66 5.089,3.66 2.959,0 6.104,-0.027 8.504,-0.295 L 6.95,0 Z"
       style="fill:#ffffff;fill-opacity:1;fill-rule:nonzero;stroke:none"
       transform="matrix(0.35277776,0,0,-0.35277776,261.08042,135.77848)"
       clip-path="url(#clipPath1514)" />
  </g>
</svg>
