<svg version="1.1" xmlns="http://www.w3.org/2000/svg" x="0px" y="0px" width="191px" height="61px" viewBox="0 0 89.3 26.3" style="enable-background:new 0 0 89.3 26.3;" xml:space="preserve"> <path style="fill:#004285;" d="M81.8,13.1v-2.2h5.1v-0.8h-2.7c-0.6,0.1-1.3-0.1-1.9-0.3c-0.3-0.3-0.5-0.7-0.5-1.1V6.8c0-0.5,0.2-0.9,0.5-1.2
c0.6-0.3,1.2-0.4,1.8-0.4h4.7v2.1h-4.6v0.9h3.3c0.5,0,1,0.1,1.4,0.4c0.3,0.3,0.5,0.7,0.4,1.2v2c0,0.4-0.2,0.8-0.5,1
c-0.4,0.3-0.8,0.4-1.3,0.4 M80.9,11.5c0,0.4-0.1,0.9-0.5,1.2c-0.4,0.3-0.8,0.5-1.3,0.4h-4.1c-0.5,0-0.9-0.1-1.3-0.4
c-0.3-0.3-0.5-0.7-0.5-1.2V5.2h2.5v5.8h2.7V5.2h2.5L80.9,11.5z M31.8,13.1V5.2h2.5v3H37v-3h2.5v7.9H37V9.9h-2.7v3.2H31.8z
M25.9,13.1c-1,0.2-2-0.6-2.2-1.6c0-0.2,0-0.4,0-0.6V7.3c0-0.6,0.2-1.2,0.5-1.6c0.4-0.4,1-0.6,1.6-0.6h5.1v2.1h-4.7v3.6h4.7v2.2
H25.9z M16.2,13.1V5.2h6.6v2.1h-4.1v0.9h4.1V10h-4.1v0.9h4.1v2.2H16.2z M15.3,13.1H8v-2l4.3-3.7H8.1V5.2h7.2v2.1L11.3,11h4.1
L15.3,13.1z M2.2,13.1c-0.6,0-1.2-0.1-1.6-0.5c-0.4-0.5-0.6-1-0.5-1.6V7.3c0-0.6,0.2-1.2,0.6-1.6c0.4-0.4,1-0.6,1.6-0.6h5.1v2.1H2.5
v3.6h4.7v2.2H2.2z M52.8,2.5c2,0.6,3.9,1.5,5.6,2.6c2,1.2,3.8,2.8,4.4,4.4c0.4,2.1-1.3,2.2-3.4,1.6c-1.8-0.6-3.5-1.5-5-2.7
c1.1,1.8,3.7,4,6.5,5.3s5.7,1.9,6.5,0.2C71.3,6.8,42.8-7,37,5.1c5.2-11.4,31.3-1.4,35.3,8.7c0.8,2,0.5,3.3-0.5,4.1s-3,1-5.3,0.5
c-2.6-0.6-5.1-1.6-7.4-3c-2.2-1.3-4.2-2.9-5.9-4.8c-3.1-4.2-0.6-4.9,3.9-2c2.8,1.8,3.7,0.7,2.6-0.9S55.4,4.2,52,3.6
c-3.2-0.6-4.8,0.8-4.1,3.4c0.7,2,2,3.9,3.6,5.3c2.8,2.7,6.1,4.9,9.6,6.5c3.4,1.6,7.5,2.8,10.6,2.2c4.8-1,3-5,1.6-7.8
c0.4,0.8,2.6,3,3,6.5c0.4,2.5-1,5-3.3,6c-2.3,1-5.3,0.9-8.5,0c-3.4-1-6.6-2.5-9.5-4.4c-2.7-1.8-5.2-3.9-7.5-6.3
c-1.6-1.7-3-3.6-3.9-5.8c-0.7-1.4-0.8-2.9-0.4-4.4c0.4-1,1.2-1.8,2.2-2.2C46.5,2.2,47.8,2,49,2C50.3,2,51.6,2.2,52.8,2.5L52.8,2.5z"></path> </svg>