<?xml version="1.0" encoding="UTF-8" standalone="no"?>
<!-- Created with Inkscape (http://www.inkscape.org/) -->

<svg
   width="70.206184mm"
   height="22.500662mm"
   viewBox="0 0 70.206184 22.500662"
   version="1.1"
   id="svg1"
   xmlns="http://www.w3.org/2000/svg"
   xmlns:svg="http://www.w3.org/2000/svg">
  <defs
     id="defs1">
    <clipPath
       clipPathUnits="userSpaceOnUse"
       id="clipPath1682">
      <path
         d="M 0,739.323 H 1504.68 V 0 H 0 Z"
         transform="translate(-970.93555,-82.674805)"
         id="path1682" />
    </clipPath>
    <clipPath
       clipPathUnits="userSpaceOnUse"
       id="clipPath1684">
      <path
         d="M 0,739.323 H 1504.68 V 0 H 0 Z"
         transform="translate(-971.03612,-82.683602)"
         id="path1684" />
    </clipPath>
    <clipPath
       clipPathUnits="userSpaceOnUse"
       id="clipPath1686">
      <path
         d="M 0,739.323 H 1504.68 V 0 H 0 Z"
         id="path1686" />
    </clipPath>
    <clipPath
       clipPathUnits="userSpaceOnUse"
       id="clipPath1688">
      <path
         d="M 0,739.323 H 1504.68 V 0 H 0 Z"
         transform="translate(-968.60065,-92.732402)"
         id="path1688" />
    </clipPath>
    <clipPath
       clipPathUnits="userSpaceOnUse"
       id="clipPath1690">
      <path
         d="M 0,739.323 H 1504.68 V 0 H 0 Z"
         transform="translate(-858.24715,-60.844704)"
         id="path1690" />
    </clipPath>
    <clipPath
       clipPathUnits="userSpaceOnUse"
       id="clipPath1692">
      <path
         d="M 0,739.323 H 1504.68 V 0 H 0 Z"
         transform="translate(-858.24715,-104.2354)"
         id="path1692" />
    </clipPath>
    <clipPath
       clipPathUnits="userSpaceOnUse"
       id="clipPath1694">
      <path
         d="M 0,739.323 H 1504.68 V 0 H 0 Z"
         transform="translate(-960.88675,-97.716805)"
         id="path1694" />
    </clipPath>
    <clipPath
       clipPathUnits="userSpaceOnUse"
       id="clipPath1696">
      <path
         d="M 0,739.323 H 1504.68 V 0 H 0 Z"
         transform="translate(-936.95125,-100.291)"
         id="path1696" />
    </clipPath>
    <clipPath
       clipPathUnits="userSpaceOnUse"
       id="clipPath1698">
      <path
         d="M 0,739.323 H 1504.68 V 0 H 0 Z"
         transform="translate(-941.62892,-108.3154)"
         id="path1698" />
    </clipPath>
    <clipPath
       clipPathUnits="userSpaceOnUse"
       id="clipPath1700">
      <path
         d="M 0,739.323 H 1504.68 V 0 H 0 Z"
         transform="translate(-948.94922,-97.716805)"
         id="path1700" />
    </clipPath>
    <clipPath
       clipPathUnits="userSpaceOnUse"
       id="clipPath1702">
      <path
         d="M 0,739.323 H 1504.68 V 0 H 0 Z"
         transform="translate(-903.1318,-102.2598)"
         id="path1702" />
    </clipPath>
    <clipPath
       clipPathUnits="userSpaceOnUse"
       id="clipPath1704">
      <path
         d="M 0,739.323 H 1504.68 V 0 H 0 Z"
         transform="translate(-924.9844,-97.716805)"
         id="path1704" />
    </clipPath>
    <clipPath
       clipPathUnits="userSpaceOnUse"
       id="clipPath1706">
      <path
         d="M 0,739.323 H 1504.68 V 0 H 0 Z"
         transform="translate(-915.14365,-97.716805)"
         id="path1706" />
    </clipPath>
    <clipPath
       clipPathUnits="userSpaceOnUse"
       id="clipPath1708">
      <path
         d="M 0,739.323 H 1504.68 V 0 H 0 Z"
         transform="translate(-955.333,-87.055705)"
         id="path1708" />
    </clipPath>
    <clipPath
       clipPathUnits="userSpaceOnUse"
       id="clipPath1710">
      <path
         d="M 0,739.323 H 1504.68 V 0 H 0 Z"
         id="path1710" />
    </clipPath>
    <clipPath
       clipPathUnits="userSpaceOnUse"
       id="clipPath1712">
      <path
         d="M 0,739.323 H 1504.68 V 0 H 0 Z"
         transform="translate(-938.29495,-79.803699)"
         id="path1712" />
    </clipPath>
    <clipPath
       clipPathUnits="userSpaceOnUse"
       id="clipPath1714">
      <path
         d="M 0,739.323 H 1504.68 V 0 H 0 Z"
         transform="translate(-906.00002,-87.055705)"
         id="path1714" />
    </clipPath>
    <clipPath
       clipPathUnits="userSpaceOnUse"
       id="clipPath1716">
      <path
         d="M 0,739.323 H 1504.68 V 0 H 0 Z"
         transform="translate(-916.1104,-87.055705)"
         id="path1716" />
    </clipPath>
    <clipPath
       clipPathUnits="userSpaceOnUse"
       id="clipPath1718">
      <path
         d="M 0,739.323 H 1504.68 V 0 H 0 Z"
         transform="translate(-965.8516,-85.481402)"
         id="path1718" />
    </clipPath>
    <clipPath
       clipPathUnits="userSpaceOnUse"
       id="clipPath1720">
      <path
         d="M 0,739.323 H 1504.68 V 0 H 0 Z"
         transform="translate(-926.82625,-87.055705)"
         id="path1720" />
    </clipPath>
    <clipPath
       clipPathUnits="userSpaceOnUse"
       id="clipPath1722">
      <path
         d="M 0,739.323 H 1504.68 V 0 H 0 Z"
         transform="translate(-1017.9171,-87.055705)"
         id="path1722" />
    </clipPath>
    <clipPath
       clipPathUnits="userSpaceOnUse"
       id="clipPath1724">
      <path
         d="M 0,739.323 H 1504.68 V 0 H 0 Z"
         transform="translate(-960.49412,-87.055705)"
         id="path1724" />
    </clipPath>
    <clipPath
       clipPathUnits="userSpaceOnUse"
       id="clipPath1726">
      <path
         d="M 0,739.323 H 1504.68 V 0 H 0 Z"
         transform="translate(-1019.2891,-89.554705)"
         id="path1726" />
    </clipPath>
    <clipPath
       clipPathUnits="userSpaceOnUse"
       id="clipPath1728">
      <path
         d="M 0,739.323 H 1504.68 V 0 H 0 Z"
         transform="translate(-1010.8848,-87.055705)"
         id="path1728" />
    </clipPath>
    <clipPath
       clipPathUnits="userSpaceOnUse"
       id="clipPath1730">
      <path
         d="M 0,739.323 H 1504.68 V 0 H 0 Z"
         transform="translate(-977.47075,-80.999005)"
         id="path1730" />
    </clipPath>
    <clipPath
       clipPathUnits="userSpaceOnUse"
       id="clipPath1732">
      <path
         d="M 0,739.323 H 1504.68 V 0 H 0 Z"
         transform="translate(-997.92092,-82.5742)"
         id="path1732" />
    </clipPath>
    <clipPath
       clipPathUnits="userSpaceOnUse"
       id="clipPath1734">
      <path
         d="M 0,739.323 H 1504.68 V 0 H 0 Z"
         transform="translate(-986.5273,-87.055705)"
         id="path1734" />
    </clipPath>
  </defs>
  <g
     id="layer1"
     transform="translate(-69.320828,-137.31874)">
    <path
       id="path1681"
       d="M 0,0 0.102,0.01 Z"
       style="fill:#00648e;fill-opacity:1;fill-rule:nonzero;stroke:none"
       transform="matrix(0.35277776,0,0,-0.35277776,119.61161,148.36725)"
       clip-path="url(#clipPath1682)" />
    <path
       id="path1683"
       d="M 0,0 V 0 L -0.101,-0.009 Z"
       style="fill:none;stroke:#199fd4;stroke-width:1;stroke-linecap:butt;stroke-linejoin:miter;stroke-miterlimit:10;stroke-dasharray:none;stroke-opacity:1"
       transform="matrix(0.35277776,0,0,-0.35277776,119.64709,148.36415)"
       clip-path="url(#clipPath1684)" />
    <path
       id="path1685"
       d="m 828.379,50.212 h 63.57 v 63.781 h -63.57 z"
       style="fill:#e52931;fill-opacity:1;fill-rule:nonzero;stroke:none"
       transform="matrix(0.35277776,0,0,-0.35277776,-222.91286,177.53308)"
       clip-path="url(#clipPath1686)" />
    <path
       id="path1687"
       d="M 0,0 V 21.261 H -74.07 V -21.262 H 58.788 v 21.26 z"
       style="fill:#84529b;fill-opacity:1;fill-rule:nonzero;stroke:none"
       transform="matrix(0.35277776,0,0,-0.35277776,118.78791,144.81915)"
       clip-path="url(#clipPath1688)" />
    <path
       id="path1689"
       d="m 0,0 h 7.389 v 25.022 c 0,2.544 2.199,4.607 4.912,4.607 h 11.018 v 6.575 L 0,36.203 Z"
       style="fill:#ffffff;fill-opacity:1;fill-rule:nonzero;stroke:none"
       transform="matrix(0.35277776,0,0,-0.35277776,79.85765,156.06842)"
       clip-path="url(#clipPath1690)" />
    <path
       id="path1691"
       d="M 0,0 H -19.65 V -7.187 H 0 v 0.001 z"
       style="fill:#ffffff;fill-opacity:1;fill-rule:nonzero;stroke:none"
       transform="matrix(0.35277776,0,0,-0.35277776,79.85765,140.76115)"
       clip-path="url(#clipPath1692)" />
    <path
       id="path1693"
       d="M 0,0 H 1.886 L -1.752,10.599 H -3.623 L -7.26,0 h 1.72 l 0.892,2.681 h 3.756 z m -4.136,4.255 1.344,4.013 h 0.061 l 1.327,-4.013 z"
       style="fill:#ffffff;fill-opacity:1;fill-rule:nonzero;stroke:none"
       transform="matrix(0.35277776,0,0,-0.35277776,116.06662,143.06077)"
       clip-path="url(#clipPath1694)" />
    <path
       id="path1695"
       d="M 0,0 V 8.025 H -1.812 V -0.092 C -1.812,-0.635 -2.173,-1 -2.716,-1 h -2.415 c -0.543,0 -0.905,0.365 -0.905,0.908 V 8.025 H -7.849 V 0 c 0,-1.529 1.042,-2.574 2.567,-2.574 h 2.718 C -1.041,-2.574 0,-1.529 0,0"
       style="fill:#ffffff;fill-opacity:1;fill-rule:nonzero;stroke:none"
       transform="matrix(0.35277776,0,0,-0.35277776,107.62271,142.15265)"
       clip-path="url(#clipPath1696)" />
    <path
       id="path1697"
       d="m 0,0 h -1.811 v -10.599 h 6.188 v 1.575 H 0 Z"
       style="fill:#ffffff;fill-opacity:1;fill-rule:nonzero;stroke:none"
       transform="matrix(0.35277776,0,0,-0.35277776,109.27289,139.32182)"
       clip-path="url(#clipPath1698)" />
    <path
       id="path1699"
       d="m 0,0 h 1.811 v 9.025 h 3.017 v 1.574 H -3.019 V 9.025 H 0 Z"
       style="fill:#ffffff;fill-opacity:1;fill-rule:nonzero;stroke:none"
       transform="matrix(0.35277776,0,0,-0.35277776,111.85533,143.06077)"
       clip-path="url(#clipPath1700)" />
    <path
       id="path1701"
       d="M 0,0 H 4.075 V 1.574 H 0 v 2.907 h 4.377 v 1.576 h -6.188 v -10.6 H 0 Z"
       style="fill:#ffffff;fill-opacity:1;fill-rule:nonzero;stroke:none"
       transform="matrix(0.35277776,0,0,-0.35277776,95.691957,141.4581)"
       clip-path="url(#clipPath1702)" />
    <path
       id="path1703"
       d="m 0,0 h 2.188 l -3.97,6.132 3.472,4.467 H -0.287 L -4.061,5.753 h -0.074 v 4.846 H -5.946 V 0 h 1.811 v 3.104 l 1.162,1.5 z"
       style="fill:#ffffff;fill-opacity:1;fill-rule:nonzero;stroke:none"
       transform="matrix(0.35277776,0,0,-0.35277776,103.40107,143.06077)"
       clip-path="url(#clipPath1704)" />
    <path
       id="path1705"
       d="M 0,0 H 1.889 L -1.75,10.599 H -3.62 L -7.259,0 h 1.722 l 0.89,2.681 h 3.758 z m -4.135,4.255 1.345,4.013 h 0.06 l 1.328,-4.013 z"
       style="fill:#ffffff;fill-opacity:1;fill-rule:nonzero;stroke:none"
       transform="matrix(0.35277776,0,0,-0.35277776,99.92947,143.06077)"
       clip-path="url(#clipPath1706)" />
    <path
       id="path1707"
       d="M 0,0 H -1.978 L -5.749,-4.845 H -5.826 V 0 h -1.811 v -10.599 h 1.811 v 3.104 l 1.163,1.5 2.973,-4.604 h 2.188 l -3.969,6.132 z"
       style="fill:#ffffff;fill-opacity:1;fill-rule:nonzero;stroke:none"
       transform="matrix(0.35277776,0,0,-0.35277776,114.10738,146.82176)"
       clip-path="url(#clipPath1708)" />
    <path
       id="path1709"
       d="m 942.973,76.456 h 1.812 v 10.6 h -1.812 z"
       style="fill:#ffffff;fill-opacity:1;fill-rule:nonzero;stroke:none"
       transform="matrix(0.35277776,0,0,-0.35277776,-222.91286,177.53308)"
       clip-path="url(#clipPath1710)" />
    <path
       id="path1711"
       d="m 0,0 h -0.061 l -4.165,7.251 h -1.81 V -3.348 h 1.81 v 7.253 h 0.061 L 0,-3.348 H 1.812 V 7.251 H 0 Z"
       style="fill:#ffffff;fill-opacity:1;fill-rule:nonzero;stroke:none"
       transform="matrix(0.35277776,0,0,-0.35277776,108.09673,149.38011)"
       clip-path="url(#clipPath1712)" />
    <path
       id="path1713"
       d="m 0,0 h -4.68 v -10.599 h 1.812 v 4.088 H 0 c 1.523,0 2.564,1.044 2.564,2.575 v 1.361 C 2.564,-1.044 1.523,0 0,0 m 0.754,-4.027 c 0,-0.544 -0.362,-0.91 -0.905,-0.91 h -2.717 v 3.362 h 2.717 c 0.543,0 0.905,-0.362 0.905,-0.907 z"
       style="fill:#ffffff;fill-opacity:1;fill-rule:nonzero;stroke:none"
       transform="matrix(0.35277776,0,0,-0.35277776,96.703803,146.82176)"
       clip-path="url(#clipPath1714)" />
    <path
       id="path1715"
       d="m 0,0 h -2.716 c -1.523,0 -2.566,-1.044 -2.566,-2.575 v -5.45 c 0,-1.529 1.043,-2.574 2.566,-2.574 H 0 c 1.524,0 2.565,1.045 2.565,2.574 v 5.45 C 2.565,-1.044 1.524,0 0,0 m 0.755,-8.115 c 0,-0.546 -0.361,-0.909 -0.905,-0.909 h -2.415 c -0.543,0 -0.907,0.363 -0.907,0.909 v 5.633 c 0,0.545 0.364,0.907 0.907,0.907 h 2.415 c 0.544,0 0.905,-0.362 0.905,-0.907 z"
       style="fill:#ffffff;fill-opacity:1;fill-rule:nonzero;stroke:none"
       transform="matrix(0.35277776,0,0,-0.35277776,100.27052,146.82176)"
       clip-path="url(#clipPath1716)" />
    <path
       id="path1717"
       d="M 0,0 H 3.019 V -9.025 H 4.828 V 0 h 3.02 V 1.574 H 0 Z"
       style="fill:#ffffff;fill-opacity:1;fill-rule:nonzero;stroke:none"
       transform="matrix(0.35277776,0,0,-0.35277776,117.81811,147.37714)"
       clip-path="url(#clipPath1718)" />
    <path
       id="path1719"
       d="M 0,0 H -5.282 V -10.599 H 0 c 1.523,0 2.564,1.045 2.564,2.574 v 5.45 C 2.564,-1.044 1.523,0 0,0 m 0.754,-8.115 c 0,-0.546 -0.362,-0.909 -0.904,-0.909 h -3.322 v 7.449 h 3.322 c 0.542,0 0.904,-0.362 0.904,-0.907 z"
       style="fill:#ffffff;fill-opacity:1;fill-rule:nonzero;stroke:none"
       transform="matrix(0.35277776,0,0,-0.35277776,104.05083,146.82176)"
       clip-path="url(#clipPath1720)" />
    <path
       id="path1721"
       d="M 0,0 H -1.872 L -5.51,-10.599 h 1.721 l 0.892,2.68 h 3.756 l 0.891,-2.68 h 1.887 z m -2.385,-6.344 1.343,4.012 h 0.061 l 1.328,-4.012 z"
       style="fill:#ffffff;fill-opacity:1;fill-rule:nonzero;stroke:none"
       transform="matrix(0.35277776,0,0,-0.35277776,136.18564,146.82176)"
       clip-path="url(#clipPath1722)" />
    <path
       id="path1723"
       d="m 0,0 -3.637,-10.599 h 1.72 l 0.892,2.68 H 2.73 l 0.892,-2.68 H 5.509 L 1.872,0 Z m -0.515,-6.344 1.346,4.012 h 0.061 l 1.327,-4.012 z"
       style="fill:#ffffff;fill-opacity:1;fill-rule:nonzero;stroke:none"
       transform="matrix(0.35277776,0,0,-0.35277776,115.92811,146.82176)"
       clip-path="url(#clipPath1724)" />
    <path
       id="path1725"
       d="m 0,0 h -1.977 l -1.267,-1.999 h 1.403 z"
       style="fill:#ffffff;fill-opacity:1;fill-rule:nonzero;stroke:none"
       transform="matrix(0.35277776,0,0,-0.35277776,136.66967,145.94017)"
       clip-path="url(#clipPath1726)" />
    <path
       id="path1727"
       d="M 0,0 H -1.978 L -5.751,-4.845 H -5.826 V 0 h -1.811 v -10.599 h 1.811 v 3.104 l 1.162,1.5 2.974,-4.604 h 2.187 l -3.968,6.132 z"
       style="fill:#ffffff;fill-opacity:1;fill-rule:nonzero;stroke:none"
       transform="matrix(0.35277776,0,0,-0.35277776,133.70483,146.82176)"
       clip-path="url(#clipPath1728)" />
    <path
       id="path1729"
       d="M 0,0 H 4.378 V 1.575 H 0 v 2.907 h 4.68 v 1.575 h -6.49 v -10.6 h 6.64 v 1.576 H 0 Z"
       style="fill:#ffffff;fill-opacity:1;fill-rule:nonzero;stroke:none"
       transform="matrix(0.35277776,0,0,-0.35277776,121.91709,148.95843)"
       clip-path="url(#clipPath1730)" />
    <path
       id="path1731"
       d="M 0,0 H -2.112 C -2.655,0 -3.02,0.363 -3.02,0.909 v 1.09 c 0,0.544 0.365,0.908 0.908,0.908 h 1.884 c 0.544,0 0.907,-0.364 0.907,-0.908 V 1.258 H 2.49 v 0.65 c 0,1.529 -1.042,2.573 -2.566,2.573 H -2.264 C -3.788,4.481 -4.83,3.437 -4.83,1.908 V 0.999 c 0,-1.529 1.042,-2.574 2.566,-2.574 h 2.113 c 0.542,0 0.906,-0.363 0.906,-0.908 v -1.151 c 0,-0.546 -0.364,-0.909 -0.906,-0.909 h -2.113 c -0.544,0 -0.905,0.363 -0.905,0.909 v 0.742 h -1.812 v -0.651 c 0,-1.529 1.043,-2.575 2.566,-2.575 H 0 c 1.522,0 2.565,1.046 2.565,2.575 v 0.968 C 2.565,-1.044 1.522,0 0,0"
       style="fill:#ffffff;fill-opacity:1;fill-rule:nonzero;stroke:none"
       transform="matrix(0.35277776,0,0,-0.35277776,129.13145,148.40274)"
       clip-path="url(#clipPath1732)" />
    <path
       id="path1733"
       d="m 0,0 h -1.812 v -10.599 h 6.188 v 1.575 H 0 Z"
       style="fill:#ffffff;fill-opacity:1;fill-rule:nonzero;stroke:none"
       transform="matrix(0.35277776,0,0,-0.35277776,125.11204,146.82176)"
       clip-path="url(#clipPath1734)" />
  </g>
</svg>
