<?xml version="1.0" encoding="UTF-8" standalone="no"?>
<!-- Created with Inkscape (http://www.inkscape.org/) -->

<svg
   width="90.559464mm"
   height="22.594004mm"
   viewBox="0 0 90.559464 22.594004"
   version="1.1"
   id="svg1"
   xmlns="http://www.w3.org/2000/svg"
   xmlns:svg="http://www.w3.org/2000/svg">
  <defs
     id="defs1">
    <clipPath
       clipPathUnits="userSpaceOnUse"
       id="clipPath684">
      <path
         d="M 0,739.323 H 1504.68 V 0 H 0 Z"
         transform="translate(-1225.5391,-97.1113)"
         id="path684" />
    </clipPath>
    <clipPath
       clipPathUnits="userSpaceOnUse"
       id="clipPath686">
      <path
         d="M 0,739.323 H 1504.68 V 0 H 0 Z"
         id="path686" />
    </clipPath>
    <clipPath
       clipPathUnits="userSpaceOnUse"
       id="clipPath688">
      <path
         d="M 0,739.323 H 1504.68 V 0 H 0 Z"
         id="path688" />
    </clipPath>
    <clipPath
       clipPathUnits="userSpaceOnUse"
       id="clipPath690">
      <path
         d="M 0,739.323 H 1504.68 V 0 H 0 Z"
         id="path690" />
    </clipPath>
    <clipPath
       clipPathUnits="userSpaceOnUse"
       id="clipPath692">
      <path
         d="M 0,739.323 H 1504.68 V 0 H 0 Z"
         transform="translate(-1247.0733,-102.7842)"
         id="path692" />
    </clipPath>
    <clipPath
       clipPathUnits="userSpaceOnUse"
       id="clipPath694">
      <path
         d="M 0,739.323 H 1504.68 V 0 H 0 Z"
         transform="translate(-1256.6523,-107.47851)"
         id="path694" />
    </clipPath>
    <clipPath
       clipPathUnits="userSpaceOnUse"
       id="clipPath696">
      <path
         d="M 0,739.323 H 1504.68 V 0 H 0 Z"
         transform="translate(-1269.5293,-109.1289)"
         id="path696" />
    </clipPath>
    <clipPath
       clipPathUnits="userSpaceOnUse"
       id="clipPath698">
      <path
         d="M 0,739.323 H 1504.68 V 0 H 0 Z"
         transform="translate(-1279.2657,-99.675805)"
         id="path698" />
    </clipPath>
    <clipPath
       clipPathUnits="userSpaceOnUse"
       id="clipPath700">
      <path
         d="M 0,739.323 H 1504.68 V 0 H 0 Z"
         transform="translate(-1291.3575,-107.47851)"
         id="path700" />
    </clipPath>
    <clipPath
       clipPathUnits="userSpaceOnUse"
       id="clipPath702">
      <path
         d="M 0,739.323 H 1504.68 V 0 H 0 Z"
         transform="translate(-1293.5557,-98.026405)"
         id="path702" />
    </clipPath>
    <clipPath
       clipPathUnits="userSpaceOnUse"
       id="clipPath704">
      <path
         d="M 0,739.323 H 1504.68 V 0 H 0 Z"
         transform="translate(-1306.4326,-107.47851)"
         id="path704" />
    </clipPath>
    <clipPath
       clipPathUnits="userSpaceOnUse"
       id="clipPath706">
      <path
         d="M 0,739.323 H 1504.68 V 0 H 0 Z"
         transform="translate(-1315.6983,-102.7842)"
         id="path706" />
    </clipPath>
    <clipPath
       clipPathUnits="userSpaceOnUse"
       id="clipPath708">
      <path
         d="M 0,739.323 H 1504.68 V 0 H 0 Z"
         transform="translate(-1331.5899,-98.026405)"
         id="path708" />
    </clipPath>
    <clipPath
       clipPathUnits="userSpaceOnUse"
       id="clipPath710">
      <path
         d="M 0,739.323 H 1504.68 V 0 H 0 Z"
         transform="translate(-1335.9708,-109.65141)"
         id="path710" />
    </clipPath>
    <clipPath
       clipPathUnits="userSpaceOnUse"
       id="clipPath712">
      <path
         d="M 0,739.323 H 1504.68 V 0 H 0 Z"
         transform="translate(-1252.915,-76.232402)"
         id="path712" />
    </clipPath>
    <clipPath
       clipPathUnits="userSpaceOnUse"
       id="clipPath714">
      <path
         d="M 0,739.323 H 1504.68 V 0 H 0 Z"
         transform="translate(-1259.1651,-77.882799)"
         id="path714" />
    </clipPath>
    <clipPath
       clipPathUnits="userSpaceOnUse"
       id="clipPath716">
      <path
         d="M 0,739.323 H 1504.68 V 0 H 0 Z"
         transform="translate(-1269.5137,-80.277302)"
         id="path716" />
    </clipPath>
    <clipPath
       clipPathUnits="userSpaceOnUse"
       id="clipPath718">
      <path
         d="M 0,739.323 H 1504.68 V 0 H 0 Z"
         transform="translate(-1282.2813,-77.882799)"
         id="path718" />
    </clipPath>
    <clipPath
       clipPathUnits="userSpaceOnUse"
       id="clipPath720">
      <path
         d="M 0,739.323 H 1504.68 V 0 H 0 Z"
         transform="translate(-1289.505,-82.1641)"
         id="path720" />
    </clipPath>
    <clipPath
       clipPathUnits="userSpaceOnUse"
       id="clipPath722">
      <path
         d="M 0,739.323 H 1504.68 V 0 H 0 Z"
         transform="translate(-1301.2822,-84.891602)"
         id="path722" />
    </clipPath>
    <clipPath
       clipPathUnits="userSpaceOnUse"
       id="clipPath724">
      <path
         d="M 0,739.323 H 1504.68 V 0 H 0 Z"
         transform="translate(-1248.6798,-63.432602)"
         id="path724" />
    </clipPath>
    <clipPath
       clipPathUnits="userSpaceOnUse"
       id="clipPath726">
      <path
         d="M 0,739.323 H 1504.68 V 0 H 0 Z"
         transform="translate(-1263.5664,-54.772501)"
         id="path726" />
    </clipPath>
    <clipPath
       clipPathUnits="userSpaceOnUse"
       id="clipPath728">
      <path
         d="M 0,739.323 H 1504.68 V 0 H 0 Z"
         transform="translate(-1268.874,-63.432602)"
         id="path728" />
    </clipPath>
    <clipPath
       clipPathUnits="userSpaceOnUse"
       id="clipPath730">
      <path
         d="M 0,739.323 H 1504.68 V 0 H 0 Z"
         transform="translate(-1280.589,-56.421901)"
         id="path730" />
    </clipPath>
    <clipPath
       clipPathUnits="userSpaceOnUse"
       id="clipPath732">
      <path
         d="M 0,739.323 H 1504.68 V 0 H 0 Z"
         transform="translate(-1292.6808,-64.225599)"
         id="path732" />
    </clipPath>
    <clipPath
       clipPathUnits="userSpaceOnUse"
       id="clipPath734">
      <path
         d="M 0,739.323 H 1504.68 V 0 H 0 Z"
         transform="translate(-1299.8887,-58.817401)"
         id="path734" />
    </clipPath>
    <clipPath
       clipPathUnits="userSpaceOnUse"
       id="clipPath736">
      <path
         d="M 0,739.323 H 1504.68 V 0 H 0 Z"
         id="path736" />
    </clipPath>
    <clipPath
       clipPathUnits="userSpaceOnUse"
       id="clipPath738">
      <path
         d="M 0,739.323 H 1504.68 V 0 H 0 Z"
         transform="translate(-1319.5654,-58.150404)"
         id="path738" />
    </clipPath>
    <clipPath
       clipPathUnits="userSpaceOnUse"
       id="clipPath740">
      <path
         d="M 0,739.323 H 1504.68 V 0 H 0 Z"
         transform="translate(-1330.2754,-54.772501)"
         id="path740" />
    </clipPath>
    <clipPath
       clipPathUnits="userSpaceOnUse"
       id="clipPath742">
      <path
         d="M 0,739.323 H 1504.68 V 0 H 0 Z"
         transform="translate(-1333.918,-66.398402)"
         id="path742" />
    </clipPath>
    <clipPath
       clipPathUnits="userSpaceOnUse"
       id="clipPath744">
      <path
         d="M 0,739.323 H 1504.68 V 0 H 0 Z"
         transform="translate(-1340.7646,-54.772501)"
         id="path744" />
    </clipPath>
    <clipPath
       clipPathUnits="userSpaceOnUse"
       id="clipPath746">
      <path
         d="M 0,739.323 H 1504.68 V 0 H 0 Z"
         transform="translate(-1356.7822,-56.421901)"
         id="path746" />
    </clipPath>
    <clipPath
       clipPathUnits="userSpaceOnUse"
       id="clipPath748">
      <path
         d="M 0,739.323 H 1504.68 V 0 H 0 Z"
         transform="translate(-1368.873,-59.530299)"
         id="path748" />
    </clipPath>
    <clipPath
       clipPathUnits="userSpaceOnUse"
       id="clipPath750">
      <path
         d="M 0,739.323 H 1504.68 V 0 H 0 Z"
         transform="translate(-1383.0069,-64.225599)"
         id="path750" />
    </clipPath>
    <clipPath
       clipPathUnits="userSpaceOnUse"
       id="clipPath752">
      <path
         d="M 0,739.323 H 1504.68 V 0 H 0 Z"
         transform="translate(-1385.2062,-54.772501)"
         id="path752" />
    </clipPath>
    <clipPath
       clipPathUnits="userSpaceOnUse"
       id="clipPath754">
      <path
         d="M 0,739.323 H 1504.68 V 0 H 0 Z"
         transform="translate(-1398.7257,-66.398402)"
         id="path754" />
    </clipPath>
    <clipPath
       clipPathUnits="userSpaceOnUse"
       id="clipPath756">
      <path
         d="M 0,739.323 H 1504.68 V 0 H 0 Z"
         transform="translate(-1406.9718,-64.225599)"
         id="path756" />
    </clipPath>
    <clipPath
       clipPathUnits="userSpaceOnUse"
       id="clipPath758">
      <path
         d="M 0,739.323 H 1504.68 V 0 H 0 Z"
         transform="translate(-1419.8478,-65.874999)"
         id="path758" />
    </clipPath>
  </defs>
  <g
     id="layer1"
     transform="translate(-59.266654,-137.31875)">
    <path
       id="path682"
       d="m 59.266654,159.91275 h 22.36999 v -22.594 h -22.36999 z"
       style="fill:#e52931;fill-opacity:1;fill-rule:nonzero;stroke:none;stroke-width:0.352778" />
    <path
       id="path683"
       d="m 0,0 h -23.264 v 7.218 h -19.6 V 0 h 19.6 v -36.355 h 7.372 v 25.129 c 0,2.554 2.195,4.623 4.899,4.623 H 0 Z"
       style="fill:#ffffff;fill-opacity:1;fill-rule:nonzero;stroke:none"
       transform="matrix(0.35277776,0,0,-0.35277776,77.984026,143.3208)"
       clip-path="url(#clipPath684)" />
    <path
       id="path685"
       d="m 1347.939,92.861 h -109.872 v 21.264 h 109.872 z"
       style="fill:#9c9a9d;fill-opacity:1;fill-rule:nonzero;stroke:none"
       transform="matrix(0.35277776,0,0,-0.35277776,-354.35892,177.57951)"
       clip-path="url(#clipPath686)" />
    <path
       id="path687"
       d="m 1311.648,71.325 h -73.581 v 21.536 h 73.581 z"
       style="fill:#9c9a9d;fill-opacity:1;fill-rule:nonzero;stroke:none"
       transform="matrix(0.35277776,0,0,-0.35277776,-354.35892,177.57951)"
       clip-path="url(#clipPath688)" />
    <path
       id="path689"
       d="m 1429.186,50.079 h -191.118 v 21.246 h 191.118 z"
       style="fill:#9c9a9d;fill-opacity:1;fill-rule:nonzero;stroke:none"
       transform="matrix(0.35277776,0,0,-0.35277776,-354.35892,177.57951)"
       clip-path="url(#clipPath690)" />
    <path
       id="path691"
       d="m 0,0 c -0.398,0 -0.76,0.065 -1.084,0.198 -0.323,0.132 -0.604,0.318 -0.84,0.555 -0.235,0.238 -0.418,0.52 -0.55,0.849 -0.13,0.328 -0.196,0.693 -0.196,1.093 v 0.953 c 0,0.402 0.066,0.766 0.196,1.094 0.132,0.327 0.315,0.611 0.55,0.85 0.236,0.236 0.517,0.422 0.84,0.554 C -0.76,6.278 -0.398,6.345 0,6.345 H 2.277 C 2.675,6.345 3.036,6.278 3.361,6.146 3.686,6.014 3.966,5.828 4.201,5.592 4.437,5.353 4.619,5.069 4.751,4.742 4.882,4.414 4.947,4.05 4.947,3.648 V 2.966 H 3.063 V 3.742 C 3.063,4.028 2.976,4.259 2.804,4.434 2.63,4.607 2.402,4.694 2.12,4.694 H 0.158 c -0.284,0 -0.512,-0.087 -0.683,-0.26 -0.174,-0.175 -0.26,-0.406 -0.26,-0.692 V 2.601 c 0,-0.287 0.086,-0.515 0.26,-0.69 C -0.354,1.737 -0.126,1.65 0.158,1.65 H 2.355 C 2.754,1.65 3.114,1.584 3.439,1.451 3.764,1.318 4.043,1.134 4.28,0.896 4.515,0.658 4.698,0.375 4.829,0.048 4.959,-0.28 5.024,-0.646 5.024,-1.047 V -2.063 C 5.024,-2.464 4.959,-2.829 4.829,-3.156 4.698,-3.484 4.515,-3.767 4.28,-4.005 4.043,-4.243 3.764,-4.428 3.439,-4.561 3.114,-4.692 2.754,-4.758 2.355,-4.758 h -2.512 c -0.398,0 -0.759,0.066 -1.084,0.197 -0.324,0.133 -0.604,0.318 -0.84,0.556 -0.234,0.238 -0.419,0.521 -0.549,0.849 -0.132,0.327 -0.196,0.692 -0.196,1.093 v 0.683 h 1.885 v -0.777 c 0,-0.286 0.086,-0.516 0.257,-0.69 0.173,-0.174 0.402,-0.261 0.684,-0.261 h 2.198 c 0.283,0 0.511,0.087 0.684,0.261 0.173,0.174 0.259,0.404 0.259,0.69 v 1.205 c 0,0.285 -0.086,0.515 -0.259,0.69 C 2.709,-0.088 2.481,0 2.198,0 Z"
       style="fill:#ffffff;fill-opacity:1;fill-rule:nonzero;stroke:none"
       transform="matrix(0.35277776,0,0,-0.35277776,85.580795,141.31953)"
       clip-path="url(#clipPath692)" />
    <path
       id="path693"
       d="M 0,0 H -3.142 V 1.65 H 5.025 V 0 H 1.885 V -9.453 H 0 Z"
       style="fill:#ffffff;fill-opacity:1;fill-rule:nonzero;stroke:none"
       transform="matrix(0.35277776,0,0,-0.35277776,88.96008,139.66348)"
       clip-path="url(#clipPath694)" />
    <path
       id="path695"
       d="m 0,0 h 1.885 v -8.407 c 0,-0.401 -0.067,-0.767 -0.197,-1.094 -0.13,-0.328 -0.314,-0.61 -0.55,-0.849 -0.236,-0.238 -0.515,-0.422 -0.84,-0.555 -0.323,-0.132 -0.686,-0.198 -1.083,-0.198 h -2.826 c -0.399,0 -0.761,0.066 -1.084,0.198 -0.326,0.133 -0.605,0.317 -0.84,0.555 -0.236,0.239 -0.419,0.521 -0.551,0.849 -0.13,0.327 -0.196,0.693 -0.196,1.094 V 0 h 1.885 v -8.502 c 0,-0.286 0.086,-0.516 0.258,-0.689 0.173,-0.175 0.402,-0.262 0.684,-0.262 h 2.514 c 0.282,0 0.509,0.087 0.682,0.262 C -0.087,-9.018 0,-8.788 0,-8.502 Z"
       style="fill:#ffffff;fill-opacity:1;fill-rule:nonzero;stroke:none"
       transform="matrix(0.35277776,0,0,-0.35277776,93.502791,139.08126)"
       clip-path="url(#clipPath696)" />
    <path
       id="path697"
       d="m 0,0 c 0.282,0 0.51,0.087 0.683,0.262 0.172,0.174 0.259,0.404 0.259,0.689 v 5.901 c 0,0.285 -0.087,0.514 -0.259,0.69 C 0.51,7.716 0.282,7.803 0,7.803 H -3.455 V 0 Z M -5.339,9.453 H 0.157 C 0.554,9.453 0.915,9.386 1.241,9.254 1.564,9.122 1.846,8.937 2.081,8.699 2.315,8.462 2.499,8.179 2.63,7.851 2.762,7.522 2.826,7.158 2.826,6.756 V 1.046 C 2.826,0.645 2.762,0.279 2.63,-0.049 2.499,-0.376 2.315,-0.658 2.081,-0.896 1.846,-1.135 1.564,-1.318 1.241,-1.452 0.915,-1.585 0.554,-1.649 0.157,-1.649 h -5.496 z"
       style="fill:#ffffff;fill-opacity:1;fill-rule:nonzero;stroke:none"
       transform="matrix(0.35277776,0,0,-0.35277776,96.937559,142.4161)"
       clip-path="url(#clipPath698)" />
    <path
       id="path699"
       d="m 0,0 h -4.868 v -3.044 h 4.554 v -1.65 h -4.554 v -3.109 h 5.025 v -1.65 H -6.752 V 1.65 H 0 Z"
       style="fill:#ffffff;fill-opacity:1;fill-rule:nonzero;stroke:none"
       transform="matrix(0.35277776,0,0,-0.35277776,101.20328,139.66348)"
       clip-path="url(#clipPath700)" />
    <path
       id="path701"
       d="M 0,0 V 11.102 H 1.885 L 6.218,3.505 h 0.064 v 7.597 H 8.166 V 0 H 6.282 L 1.947,7.597 H 1.885 V 0 Z"
       style="fill:#ffffff;fill-opacity:1;fill-rule:nonzero;stroke:none"
       transform="matrix(0.35277776,0,0,-0.35277776,101.97877,142.99798)"
       clip-path="url(#clipPath702)" />
    <path
       id="path703"
       d="M 0,0 H -3.141 V 1.65 H 5.025 V 0 H 1.885 V -9.453 H 0 Z"
       style="fill:#ffffff;fill-opacity:1;fill-rule:nonzero;stroke:none"
       transform="matrix(0.35277776,0,0,-0.35277776,106.52145,139.66348)"
       clip-path="url(#clipPath704)" />
    <path
       id="path705"
       d="m 0,0 c -0.399,0 -0.76,0.065 -1.084,0.198 -0.325,0.132 -0.604,0.318 -0.84,0.555 -0.235,0.238 -0.42,0.52 -0.55,0.849 -0.13,0.328 -0.196,0.693 -0.196,1.093 v 0.953 c 0,0.402 0.066,0.766 0.196,1.094 0.13,0.327 0.315,0.611 0.55,0.85 0.236,0.236 0.515,0.422 0.84,0.554 C -0.76,6.278 -0.399,6.345 0,6.345 h 2.275 c 0.4,0 0.761,-0.067 1.084,-0.199 C 3.685,6.014 3.964,5.828 4.2,5.592 4.436,5.353 4.619,5.069 4.75,4.742 4.88,4.414 4.946,4.05 4.946,3.648 V 2.966 H 3.062 V 3.742 C 3.062,4.028 2.976,4.259 2.803,4.434 2.63,4.607 2.402,4.694 2.12,4.694 H 0.156 c -0.282,0 -0.51,-0.087 -0.682,-0.26 C -0.7,4.259 -0.785,4.028 -0.785,3.742 V 2.601 c 0,-0.287 0.085,-0.515 0.259,-0.69 0.172,-0.174 0.4,-0.261 0.682,-0.261 H 2.354 C 2.753,1.65 3.114,1.584 3.438,1.451 3.764,1.318 4.043,1.134 4.278,0.896 4.515,0.658 4.697,0.375 4.829,0.048 4.959,-0.28 5.024,-0.646 5.024,-1.047 V -2.063 C 5.024,-2.464 4.959,-2.829 4.829,-3.156 4.697,-3.484 4.515,-3.767 4.278,-4.005 4.043,-4.243 3.764,-4.428 3.438,-4.561 3.114,-4.692 2.753,-4.758 2.354,-4.758 h -2.512 c -0.397,0 -0.758,0.066 -1.083,0.197 -0.324,0.133 -0.605,0.318 -0.841,0.556 -0.234,0.238 -0.418,0.521 -0.549,0.849 -0.132,0.327 -0.195,0.692 -0.195,1.093 v 0.683 h 1.884 v -0.777 c 0,-0.286 0.086,-0.516 0.258,-0.69 0.173,-0.174 0.4,-0.261 0.684,-0.261 h 2.198 c 0.282,0 0.51,0.087 0.683,0.261 0.173,0.174 0.26,0.404 0.26,0.69 v 1.205 c 0,0.285 -0.087,0.515 -0.26,0.69 C 2.708,-0.088 2.48,0 2.198,0 Z"
       style="fill:#ffffff;fill-opacity:1;fill-rule:nonzero;stroke:none"
       transform="matrix(0.35277776,0,0,-0.35277776,109.79017,141.31953)"
       clip-path="url(#clipPath706)" />
    <path
       id="path707"
       d="M 0,0 H -2.277 L -5.37,4.82 -6.58,3.251 V 0 H -8.464 V 11.102 H -6.58 V 6.025 h 0.078 l 3.926,5.077 h 2.058 L -4.131,6.423 Z"
       style="fill:#ffffff;fill-opacity:1;fill-rule:nonzero;stroke:none"
       transform="matrix(0.35277776,0,0,-0.35277776,115.39637,142.99798)"
       clip-path="url(#clipPath708)" />
    <path
       id="path709"
       d="M 0,0 1.318,2.094 H 3.376 L 1.461,0 Z M 0.927,-2.966 H 0.863 l -1.397,-4.203 h 2.843 z m 4.805,-8.659 H 3.77 l -0.927,2.807 h -3.91 l -0.928,-2.807 h -1.79 L 0,-0.522 h 1.947 z"
       style="fill:#ffffff;fill-opacity:1;fill-rule:nonzero;stroke:none"
       transform="matrix(0.35277776,0,0,-0.35277776,116.94186,138.89693)"
       clip-path="url(#clipPath710)" />
    <path
       id="path711"
       d="M 0,0 H -2.276 L -5.37,4.822 -6.58,3.251 V 0 H -8.464 V 11.103 H -6.58 V 6.027 h 0.079 l 3.925,5.076 h 2.058 L -4.13,6.424 Z"
       style="fill:#ffffff;fill-opacity:1;fill-rule:nonzero;stroke:none"
       transform="matrix(0.35277776,0,0,-0.35277776,87.641635,150.68642)"
       clip-path="url(#clipPath712)" />
    <path
       id="path713"
       d="M 0,0 C 0.283,0 0.511,0.087 0.684,0.261 0.856,0.437 0.941,0.665 0.941,0.95 v 5.901 c 0,0.285 -0.085,0.515 -0.257,0.69 C 0.511,7.716 0.283,7.803 0,7.803 h -2.512 c -0.283,0 -0.51,-0.087 -0.683,-0.262 -0.173,-0.175 -0.26,-0.405 -0.26,-0.69 V 0.95 c 0,-0.285 0.087,-0.513 0.26,-0.689 C -3.022,0.087 -2.795,0 -2.512,0 Z m -2.67,-1.65 c -0.397,0 -0.759,0.065 -1.084,0.198 -0.323,0.133 -0.603,0.317 -0.84,0.555 -0.235,0.238 -0.418,0.521 -0.549,0.848 -0.131,0.328 -0.196,0.694 -0.196,1.095 v 5.71 c 0,0.402 0.065,0.766 0.196,1.095 0.131,0.327 0.314,0.61 0.549,0.848 0.237,0.238 0.517,0.422 0.84,0.555 0.325,0.132 0.687,0.198 1.084,0.198 H 0.158 C 0.555,9.452 0.916,9.386 1.241,9.254 1.565,9.121 1.845,8.937 2.082,8.699 2.316,8.461 2.5,8.178 2.63,7.851 2.762,7.522 2.826,7.158 2.826,6.756 V 1.046 C 2.826,0.645 2.762,0.279 2.63,-0.049 2.5,-0.376 2.316,-0.659 2.082,-0.897 1.845,-1.135 1.565,-1.319 1.241,-1.452 0.916,-1.585 0.555,-1.65 0.158,-1.65 Z"
       style="fill:#ffffff;fill-opacity:1;fill-rule:nonzero;stroke:none"
       transform="matrix(0.35277776,0,0,-0.35277776,89.846514,150.10419)"
       clip-path="url(#clipPath714)" />
    <path
       id="path715"
       d="M 0,0 H 0.062 L 3.11,7.058 H 4.915 V -4.044 H 3.047 V 2.791 H 2.968 L 0,-4.044 H -0.094 L -3.046,2.791 H -3.125 V -4.044 H -5.01 V 7.058 h 1.964 z"
       style="fill:#ffffff;fill-opacity:1;fill-rule:nonzero;stroke:none"
       transform="matrix(0.35277776,0,0,-0.35277776,93.497287,149.25946)"
       clip-path="url(#clipPath716)" />
    <path
       id="path717"
       d="M 0,0 C 0.282,0 0.511,0.087 0.684,0.261 0.855,0.437 0.941,0.665 0.941,0.95 v 5.901 c 0,0.285 -0.086,0.515 -0.257,0.69 C 0.511,7.716 0.282,7.803 0,7.803 h -2.513 c -0.282,0 -0.51,-0.087 -0.683,-0.262 C -3.369,7.366 -3.455,7.136 -3.455,6.851 V 0.95 c 0,-0.285 0.086,-0.513 0.259,-0.689 C -3.023,0.087 -2.795,0 -2.513,0 Z m -2.67,-1.65 c -0.398,0 -0.759,0.065 -1.084,0.198 -0.324,0.133 -0.604,0.317 -0.84,0.555 -0.235,0.238 -0.419,0.521 -0.549,0.848 -0.131,0.328 -0.196,0.694 -0.196,1.095 v 5.71 c 0,0.402 0.065,0.766 0.196,1.095 0.13,0.327 0.314,0.61 0.549,0.848 0.236,0.238 0.516,0.422 0.84,0.555 0.325,0.132 0.686,0.198 1.084,0.198 H 0.156 C 0.554,9.452 0.916,9.386 1.24,9.254 1.564,9.121 1.845,8.937 2.081,8.699 2.315,8.461 2.5,8.178 2.63,7.851 2.761,7.522 2.826,7.158 2.826,6.756 V 1.046 C 2.826,0.645 2.761,0.279 2.63,-0.049 2.5,-0.376 2.315,-0.659 2.081,-0.897 1.845,-1.135 1.564,-1.319 1.24,-1.452 0.916,-1.585 0.554,-1.65 0.156,-1.65 Z"
       style="fill:#ffffff;fill-opacity:1;fill-rule:nonzero;stroke:none"
       transform="matrix(0.35277776,0,0,-0.35277776,98.001422,150.10419)"
       clip-path="url(#clipPath718)" />
    <path
       id="path719"
       d="m 0,0 h 2.983 c 0.284,0 0.511,0.088 0.683,0.263 0.174,0.174 0.26,0.404 0.26,0.689 V 2.569 C 3.926,2.854 3.84,3.085 3.666,3.26 3.494,3.435 3.267,3.521 2.983,3.521 H 0 Z M 1.837,-1.648 H 0 V -5.932 H -1.885 V 5.171 H 3.141 C 3.538,5.171 3.899,5.104 4.224,4.973 4.549,4.84 4.829,4.655 5.063,4.417 5.3,4.18 5.482,3.896 5.614,3.569 5.745,3.241 5.811,2.877 5.811,2.475 V 1.047 C 5.811,0.369 5.635,-0.198 5.284,-0.658 4.934,-1.118 4.459,-1.422 3.863,-1.57 L 6.124,-5.932 H 4.052 Z"
       style="fill:#ffffff;fill-opacity:1;fill-rule:nonzero;stroke:none"
       transform="matrix(0.35277776,0,0,-0.35277776,100.54976,148.59384)"
       clip-path="url(#clipPath720)" />
    <path
       id="path721"
       d="M 0,0 H -0.062 L -1.461,-4.202 H 1.382 Z M 4.806,-8.658 H 2.843 l -0.927,2.805 h -3.911 l -0.927,-2.805 h -1.79 l 3.784,11.101 h 1.949 z"
       style="fill:#ffffff;fill-opacity:1;fill-rule:nonzero;stroke:none"
       transform="matrix(0.35277776,0,0,-0.35277776,104.70451,147.63164)"
       clip-path="url(#clipPath722)" />
    <path
       id="path723"
       d="M 0,0 H -0.062 L -1.461,-4.203 H 1.382 Z M 4.805,-8.659 H 2.843 l -0.927,2.806 h -3.91 l -0.928,-2.806 h -1.79 L -0.927,2.442 H 1.02 Z"
       style="fill:#ffffff;fill-opacity:1;fill-rule:nonzero;stroke:none"
       transform="matrix(0.35277776,0,0,-0.35277776,86.147533,155.2019)"
       clip-path="url(#clipPath724)" />
    <path
       id="path725"
       d="M 0,0 H -2.276 L -5.37,4.822 -6.579,3.252 V 0 h -1.885 v 11.102 h 1.885 V 6.027 h 0.077 l 3.926,5.075 h 2.058 L -4.13,6.424 Z"
       style="fill:#ffffff;fill-opacity:1;fill-rule:nonzero;stroke:none"
       transform="matrix(0.35277776,0,0,-0.35277776,91.399221,158.25699)"
       clip-path="url(#clipPath726)" />
    <path
       id="path727"
       d="M 0,0 H -0.062 L -1.46,-4.203 H 1.382 Z M 4.805,-8.659 H 2.843 l -0.927,2.806 h -3.911 l -0.926,-2.806 h -1.79 l 3.784,11.101 h 1.948 z"
       style="fill:#ffffff;fill-opacity:1;fill-rule:nonzero;stroke:none"
       transform="matrix(0.35277776,0,0,-0.35277776,93.271624,155.2019)"
       clip-path="url(#clipPath728)" />
    <path
       id="path729"
       d="m 0,0 c 0.283,0 0.511,0.088 0.683,0.262 0.173,0.175 0.259,0.405 0.259,0.69 V 6.853 C 0.942,7.137 0.856,7.367 0.683,7.542 0.511,7.717 0.283,7.804 0,7.804 H -3.455 V 0 Z M -5.34,9.453 H 0.157 C 0.555,9.453 0.916,9.387 1.241,9.255 1.565,9.122 1.846,8.938 2.081,8.699 2.316,8.462 2.5,8.179 2.63,7.852 2.761,7.522 2.827,7.159 2.827,6.756 V 1.048 C 2.827,0.646 2.761,0.28 2.63,-0.047 2.5,-0.375 2.316,-0.658 2.081,-0.896 1.846,-1.133 1.565,-1.318 1.241,-1.451 0.916,-1.583 0.555,-1.649 0.157,-1.649 H -5.34 Z"
       style="fill:#ffffff;fill-opacity:1;fill-rule:nonzero;stroke:none"
       transform="matrix(0.35277776,0,0,-0.35277776,97.40439,157.67512)"
       clip-path="url(#clipPath730)" />
    <path
       id="path731"
       d="m 0,0 h -4.869 v -3.045 h 4.556 v -1.649 h -4.556 v -3.11 h 5.026 v -1.649 h -6.91 V 1.649 H 0 Z"
       style="fill:#ffffff;fill-opacity:1;fill-rule:nonzero;stroke:none"
       transform="matrix(0.35277776,0,0,-0.35277776,101.67011,154.92215)"
       clip-path="url(#clipPath732)" />
    <path
       id="path733"
       d="M 0,0 H 0.062 L 3.109,7.058 H 4.914 V -4.045 H 3.047 V 2.791 H 2.968 L 0,-4.045 H -0.095 L -3.047,2.791 H -3.125 V -4.045 H -5.01 V 7.058 h 1.963 z"
       style="fill:#ffffff;fill-opacity:1;fill-rule:nonzero;stroke:none"
       transform="matrix(0.35277776,0,0,-0.35277776,104.21291,156.83004)"
       clip-path="url(#clipPath734)" />
    <path
       id="path735"
       d="m 1309.2,54.772 h -1.885 v 11.103 h 1.885 z"
       style="fill:#ffffff;fill-opacity:1;fill-rule:nonzero;stroke:none"
       transform="matrix(0.35277776,0,0,-0.35277776,-354.35892,177.57951)"
       clip-path="url(#clipPath736)" />
    <path
       id="path737"
       d="m 0,0 v -0.681 c 0,-0.403 -0.065,-0.767 -0.197,-1.095 -0.13,-0.328 -0.315,-0.611 -0.549,-0.848 -0.235,-0.238 -0.517,-0.423 -0.84,-0.556 -0.325,-0.132 -0.686,-0.198 -1.084,-0.198 h -2.513 c -0.398,0 -0.759,0.066 -1.083,0.198 -0.325,0.133 -0.604,0.318 -0.839,0.556 -0.237,0.237 -0.419,0.52 -0.551,0.848 -0.131,0.328 -0.197,0.692 -0.197,1.095 v 5.708 c 0,0.403 0.066,0.767 0.197,1.095 0.132,0.328 0.314,0.611 0.551,0.85 0.235,0.237 0.514,0.423 0.839,0.554 0.324,0.132 0.685,0.199 1.083,0.199 h 2.513 c 0.398,0 0.759,-0.067 1.084,-0.199 0.323,-0.131 0.605,-0.317 0.84,-0.554 C -0.512,6.733 -0.327,6.45 -0.197,6.122 -0.065,5.794 0,5.43 0,5.027 V 4.346 h -1.885 v 0.778 c 0,0.284 -0.087,0.515 -0.259,0.689 -0.172,0.174 -0.4,0.262 -0.683,0.262 H -5.025 C -5.309,6.075 -5.536,5.987 -5.709,5.813 -5.882,5.639 -5.968,5.408 -5.968,5.124 v -5.9 c 0,-0.286 0.086,-0.516 0.259,-0.691 0.173,-0.175 0.4,-0.262 0.684,-0.262 h 2.198 c 0.283,0 0.511,0.087 0.683,0.262 0.172,0.175 0.259,0.405 0.259,0.691 V 0 Z"
       style="fill:#ffffff;fill-opacity:1;fill-rule:nonzero;stroke:none"
       transform="matrix(0.35277776,0,0,-0.35277776,111.15441,157.06534)"
       clip-path="url(#clipPath738)" />
    <path
       id="path739"
       d="M 0,0 H -2.277 L -5.371,4.822 -6.58,3.252 V 0 H -8.464 V 11.102 H -6.58 V 6.027 h 0.078 l 3.926,5.075 h 2.057 L -4.131,6.424 Z"
       style="fill:#ffffff;fill-opacity:1;fill-rule:nonzero;stroke:none"
       transform="matrix(0.35277776,0,0,-0.35277776,114.93266,158.25699)"
       clip-path="url(#clipPath740)" />
    <path
       id="path741"
       d="M 0,0 1.318,2.093 H 3.377 L 1.461,0 Z M 4.647,-2.173 H -0.22 V -5.218 H 4.335 V -6.867 H -0.22 v -3.11 h 5.026 v -1.649 h -6.91 v 11.103 h 6.751 z"
       style="fill:#ffffff;fill-opacity:1;fill-rule:nonzero;stroke:none"
       transform="matrix(0.35277776,0,0,-0.35277776,116.21769,154.15563)"
       clip-path="url(#clipPath742)" />
    <path
       id="path743"
       d="M 0,0 V 11.102 H 1.885 V 6.407 h 4.396 v 4.695 H 8.165 V 0 H 6.281 V 4.758 H 1.885 V 0 Z"
       style="fill:#ffffff;fill-opacity:1;fill-rule:nonzero;stroke:none"
       transform="matrix(0.35277776,0,0,-0.35277776,118.63302,158.25699)"
       clip-path="url(#clipPath744)" />
    <path
       id="path745"
       d="m 0,0 c 0.283,0 0.511,0.088 0.684,0.262 0.171,0.175 0.258,0.405 0.258,0.69 V 6.853 C 0.942,7.137 0.855,7.367 0.684,7.542 0.511,7.717 0.283,7.804 0,7.804 h -2.513 c -0.282,0 -0.51,-0.087 -0.681,-0.262 C -3.368,7.367 -3.455,7.137 -3.455,6.853 V 0.952 c 0,-0.285 0.087,-0.515 0.261,-0.69 C -3.023,0.088 -2.795,0 -2.513,0 Z m -2.669,-1.649 c -0.398,0 -0.76,0.066 -1.084,0.198 -0.324,0.133 -0.604,0.318 -0.84,0.555 -0.236,0.238 -0.42,0.521 -0.55,0.849 -0.13,0.327 -0.196,0.693 -0.196,1.095 v 5.708 c 0,0.403 0.066,0.766 0.196,1.096 0.13,0.327 0.314,0.61 0.55,0.847 0.236,0.239 0.516,0.423 0.84,0.556 0.324,0.132 0.686,0.198 1.084,0.198 H 0.157 C 0.554,9.453 0.916,9.387 1.241,9.255 1.564,9.122 1.846,8.938 2.081,8.699 2.315,8.462 2.5,8.179 2.63,7.852 2.762,7.522 2.826,7.159 2.826,6.756 V 1.048 C 2.826,0.646 2.762,0.28 2.63,-0.047 2.5,-0.375 2.315,-0.658 2.081,-0.896 1.846,-1.133 1.564,-1.318 1.241,-1.451 0.916,-1.583 0.554,-1.649 0.157,-1.649 Z"
       style="fill:#ffffff;fill-opacity:1;fill-rule:nonzero;stroke:none"
       transform="matrix(0.35277776,0,0,-0.35277776,124.28367,157.67512)"
       clip-path="url(#clipPath746)" />
    <path
       id="path747"
       d="m 0,0 c -0.397,0 -0.758,0.066 -1.083,0.198 -0.324,0.133 -0.604,0.318 -0.84,0.555 -0.235,0.239 -0.419,0.522 -0.549,0.85 -0.132,0.327 -0.196,0.692 -0.196,1.093 v 0.952 c 0,0.402 0.064,0.766 0.196,1.094 0.13,0.328 0.314,0.612 0.549,0.85 0.236,0.237 0.516,0.423 0.84,0.554 0.325,0.132 0.686,0.199 1.083,0.199 h 2.277 c 0.399,0 0.76,-0.067 1.084,-0.199 C 3.686,6.015 3.966,5.829 4.201,5.592 4.437,5.354 4.62,5.07 4.752,4.742 4.882,4.414 4.948,4.05 4.948,3.648 V 2.966 H 3.063 v 0.778 c 0,0.285 -0.085,0.515 -0.258,0.69 C 2.631,4.607 2.403,4.695 2.121,4.695 H 0.158 C -0.125,4.695 -0.353,4.607 -0.525,4.434 -0.698,4.259 -0.784,4.029 -0.784,3.744 V 2.603 c 0,-0.287 0.086,-0.517 0.259,-0.692 0.172,-0.174 0.4,-0.261 0.683,-0.261 H 2.356 C 2.754,1.65 3.114,1.584 3.44,1.451 3.764,1.319 4.045,1.134 4.28,0.897 4.516,0.659 4.698,0.376 4.83,0.048 4.961,-0.28 5.025,-0.645 5.025,-1.047 V -2.062 C 5.025,-2.464 4.961,-2.829 4.83,-3.155 4.698,-3.483 4.516,-3.766 4.28,-4.004 4.045,-4.242 3.764,-4.427 3.44,-4.56 3.114,-4.691 2.754,-4.757 2.356,-4.757 h -2.512 c -0.398,0 -0.76,0.066 -1.084,0.197 -0.324,0.133 -0.605,0.318 -0.84,0.556 -0.235,0.238 -0.42,0.521 -0.55,0.849 -0.131,0.326 -0.196,0.691 -0.196,1.093 v 0.682 h 1.885 v -0.776 c 0,-0.285 0.086,-0.516 0.259,-0.69 0.172,-0.175 0.4,-0.262 0.682,-0.262 h 2.199 c 0.282,0 0.51,0.087 0.684,0.262 0.172,0.174 0.26,0.405 0.26,0.69 v 1.205 c 0,0.285 -0.088,0.514 -0.26,0.69 C 2.709,-0.087 2.481,0 2.199,0 Z"
       style="fill:#ffffff;fill-opacity:1;fill-rule:nonzero;stroke:none"
       transform="matrix(0.35277776,0,0,-0.35277776,128.54905,156.57855)"
       clip-path="url(#clipPath748)" />
    <path
       id="path749"
       d="m 0,0 h -4.868 v -3.045 h 4.554 v -1.649 h -4.554 v -3.11 H 0.157 V -9.453 H -6.752 V 1.649 H 0 Z"
       style="fill:#ffffff;fill-opacity:1;fill-rule:nonzero;stroke:none"
       transform="matrix(0.35277776,0,0,-0.35277776,133.53515,154.92215)"
       clip-path="url(#clipPath750)" />
    <path
       id="path751"
       d="M 0,0 V 11.102 H 1.884 L 6.218,3.505 h 0.063 v 7.597 H 8.165 V 0 H 6.281 L 1.946,7.597 H 1.884 V 0 Z"
       style="fill:#ffffff;fill-opacity:1;fill-rule:nonzero;stroke:none"
       transform="matrix(0.35277776,0,0,-0.35277776,134.31101,158.25699)"
       clip-path="url(#clipPath752)" />
    <path
       id="path753"
       d="M 0,0 1.32,2.093 H 3.378 L 1.461,0 Z M 0.928,-2.966 H 0.864 L -0.533,-7.168 H 2.31 Z m 4.804,-8.66 H 3.77 l -0.927,2.808 h -3.91 l -0.926,-2.808 h -1.79 L 0,-0.523 h 1.948 z"
       style="fill:#ffffff;fill-opacity:1;fill-rule:nonzero;stroke:none"
       transform="matrix(0.35277776,0,0,-0.35277776,139.08039,154.15563)"
       clip-path="url(#clipPath754)" />
    <path
       id="path755"
       d="M 0,0 H -3.143 V 1.649 H 5.024 V 0 H 1.884 V -9.453 H 0 Z"
       style="fill:#ffffff;fill-opacity:1;fill-rule:nonzero;stroke:none"
       transform="matrix(0.35277776,0,0,-0.35277776,141.98943,154.92215)"
       clip-path="url(#clipPath756)" />
    <path
       id="path757"
       d="m 0,0 h 1.885 v -8.406 c 0,-0.402 -0.067,-0.768 -0.197,-1.094 -0.131,-0.328 -0.314,-0.61 -0.55,-0.849 -0.236,-0.238 -0.515,-0.422 -0.84,-0.556 -0.323,-0.131 -0.686,-0.197 -1.083,-0.197 h -2.826 c -0.399,0 -0.761,0.066 -1.084,0.197 -0.326,0.134 -0.605,0.318 -0.84,0.556 -0.236,0.239 -0.419,0.521 -0.551,0.849 -0.13,0.326 -0.196,0.692 -0.196,1.094 V 0 h 1.885 v -8.501 c 0,-0.285 0.086,-0.516 0.259,-0.689 0.172,-0.176 0.401,-0.263 0.683,-0.263 h 2.513 c 0.282,0 0.51,0.087 0.683,0.263 C -0.087,-9.017 0,-8.786 0,-8.501 Z"
       style="fill:#ffffff;fill-opacity:1;fill-rule:nonzero;stroke:none"
       transform="matrix(0.35277776,0,0,-0.35277776,146.5318,154.34028)"
       clip-path="url(#clipPath758)" />
  </g>
</svg>
